<svg width="81" height="80" viewBox="0 0 81 80" fill="none" xmlns="http://www.w3.org/2000/svg">
<path d="M70.5 19.998V42.498C70.5 45.9493 67.7012 48.748 64.25 48.748H25.5C22.0488 48.748 19.25 45.9493 19.25 42.498V19.998C19.25 16.5468 22.0488 13.748 25.5 13.748H64.25C67.7012 13.748 70.5 16.5468 70.5 19.998Z" fill="url(#paint0_linear_3193_28466)"/>
<path d="M19.25 21.248H70.5V28.748H19.25V21.248Z" fill="url(#paint1_linear_3193_28466)"/>
<path d="M24.875 32.498H64.875C65.91 32.498 66.75 33.338 66.75 34.373V35.623C66.75 36.658 65.91 37.498 64.875 37.498H24.875C23.84 37.498 23 36.658 23 35.623V34.373C23 33.338 23.84 32.498 24.875 32.498Z" fill="#F1FCFF"/>
<path d="M61.75 42.498V64.998C61.75 68.4493 58.9512 71.248 55.5 71.248H16.75C13.2988 71.248 10.5 68.4493 10.5 64.998V42.498C10.5 39.0468 13.2988 36.248 16.75 36.248H55.5C58.9512 36.248 61.75 39.0468 61.75 42.498Z" fill="url(#paint2_linear_3193_28466)"/>
<path d="M56.75 46.248V51.248C56.75 52.6293 55.6313 53.748 54.25 53.748H48C46.6187 53.748 45.5 52.6293 45.5 51.248V46.248C45.5 44.8668 46.6187 43.748 48 43.748H54.25C55.6313 43.748 56.75 44.8668 56.75 46.248Z" fill="url(#paint3_linear_3193_28466)"/>
<g opacity="0.8">
<path d="M17.374 61.25H21.124C22.159 61.25 22.999 62.09 22.999 63.125C22.999 64.16 22.159 65 21.124 65H17.374C16.339 65 15.499 64.16 15.499 63.125C15.499 62.09 16.339 61.25 17.374 61.25ZM28.624 61.25H32.374C33.409 61.25 34.249 62.09 34.249 63.125C34.249 64.16 33.409 65 32.374 65H28.624C27.589 65 26.749 64.16 26.749 63.125C26.749 62.09 27.589 61.25 28.624 61.25ZM39.874 61.25H43.624C44.659 61.25 45.499 62.09 45.499 63.125C45.499 64.16 44.659 65 43.624 65H39.874C38.839 65 37.999 64.16 37.999 63.125C37.999 62.09 38.839 61.25 39.874 61.25ZM51.124 61.25H54.874C55.909 61.25 56.749 62.09 56.749 63.125C56.749 64.16 55.909 65 54.874 65H51.124C50.089 65 49.249 64.16 49.249 63.125C49.249 62.09 50.089 61.25 51.124 61.25Z" fill="#F1FCFF"/>
</g>
<defs>
<linearGradient id="paint0_linear_3193_28466" x1="44.875" y1="21.0568" x2="44.875" y2="56.0568" gradientUnits="userSpaceOnUse">
<stop stop-color="#40DAF2"/>
<stop offset="0.259" stop-color="#3BD3EF"/>
<stop offset="0.624" stop-color="#2EC1E8"/>
<stop offset="1" stop-color="#1BA7DD"/>
</linearGradient>
<linearGradient id="paint1_linear_3193_28466" x1="44.875" y1="12.7205" x2="44.875" y2="29.7268" gradientUnits="userSpaceOnUse">
<stop stop-color="#A4A4A4"/>
<stop offset="0.63" stop-color="#7F7F7F"/>
<stop offset="1" stop-color="#6F6F6F"/>
</linearGradient>
<linearGradient id="paint2_linear_3193_28466" x1="36.125" y1="61.7893" x2="36.125" y2="15.3518" gradientUnits="userSpaceOnUse">
<stop stop-color="#155CDE"/>
<stop offset="0.278" stop-color="#1F7FE5"/>
<stop offset="0.569" stop-color="#279CEB"/>
<stop offset="0.82" stop-color="#2CAFEF"/>
<stop offset="1" stop-color="#2EB5F0"/>
</linearGradient>
<linearGradient id="paint3_linear_3193_28466" x1="51.125" y1="53.748" x2="51.125" y2="43.748" gradientUnits="userSpaceOnUse">
<stop stop-color="#FEAA53"/>
<stop offset="0.612" stop-color="#FFCD49"/>
<stop offset="1" stop-color="#FFDE44"/>
</linearGradient>
</defs>
</svg>
