<svg width="17" height="16" viewBox="0 0 17 16" fill="none" xmlns="http://www.w3.org/2000/svg">
<path d="M14.0215 6.66668H2.02148M10.6882 1.33334V4.00001M5.35482 1.33334V4.00001M5.22148 14.6667H10.8215C11.9416 14.6667 12.5016 14.6667 12.9295 14.4487C13.3058 14.2569 13.6118 13.951 13.8035 13.5747C14.0215 13.1468 14.0215 12.5868 14.0215 11.4667V5.86668C14.0215 4.74657 14.0215 4.18652 13.8035 3.7587C13.6118 3.38237 13.3058 3.07641 12.9295 2.88466C12.5016 2.66668 11.9416 2.66668 10.8215 2.66668H5.22148C4.10138 2.66668 3.54133 2.66668 3.1135 2.88466C2.73718 3.07641 2.43122 3.38237 2.23947 3.7587C2.02148 4.18652 2.02148 4.74657 2.02148 5.86668V11.4667C2.02148 12.5868 2.02148 13.1468 2.23947 13.5747C2.43122 13.951 2.73718 14.2569 3.1135 14.4487C3.54133 14.6667 4.10138 14.6667 5.22148 14.6667Z" stroke="black" stroke-linecap="round" stroke-linejoin="round"/>
</svg>
