<svg width="16" height="17" viewBox="0 0 16 17" fill="none" xmlns="http://www.w3.org/2000/svg">
<path d="M5.7131 2.74989C5.95033 2.74989 6.16891 2.87855 6.28407 3.08598L7.0829 4.52494C7.18748 4.71334 7.19242 4.94123 7.09602 5.13398L6.32646 6.67315C6.32646 6.67315 6.54948 7.81973 7.48283 8.75308C8.41622 9.68644 9.55895 9.90561 9.55895 9.90561L11.0979 9.13617C11.2907 9.03971 11.5188 9.04471 11.7073 9.14949L13.1503 9.95178C13.3575 10.067 13.486 10.2855 13.486 10.5226V12.1792C13.486 13.0229 12.7024 13.6322 11.903 13.3625C10.2612 12.8085 7.71277 11.7537 6.09749 10.1384C4.48221 8.52314 3.42743 5.97467 2.87346 4.3329C2.60374 3.53352 3.21307 2.74989 4.05671 2.74989H5.7131Z" stroke="#333333" stroke-linejoin="round"/>
</svg>
