<svg width="24" height="25" viewBox="0 0 24 25" fill="none" xmlns="http://www.w3.org/2000/svg">
<path fill-rule="evenodd" clip-rule="evenodd" d="M9.77778 21.5H14.2222C17.3433 21.5 18.9038 21.5 20.0248 20.7646C20.51 20.4462 20.9267 20.0371 21.251 19.5607C22 18.4601 22 16.9279 22 13.8636C22 10.7994 22 9.26721 21.251 8.1666C20.9267 7.69014 20.51 7.28104 20.0248 6.96268C19.3044 6.49013 18.4027 6.32123 17.022 6.26086C16.3631 6.26086 15.7959 5.77068 15.6667 5.13636C15.4728 4.18489 14.6219 3.5 13.6337 3.5H10.3663C9.37805 3.5 8.52715 4.18489 8.33333 5.13636C8.20412 5.77068 7.63685 6.26086 6.978 6.26086C5.59733 6.32123 4.69555 6.49013 3.97524 6.96268C3.48995 7.28104 3.07328 7.69014 2.74902 8.1666C2 9.26721 2 10.7994 2 13.8636C2 16.9279 2 18.4601 2.74902 19.5607C3.07328 20.0371 3.48995 20.4462 3.97524 20.7646C5.09624 21.5 6.65675 21.5 9.77778 21.5ZM12 9.77273C9.69881 9.77273 7.83333 11.6043 7.83333 13.8636C7.83333 16.123 9.69881 17.9545 12 17.9545C14.3012 17.9545 16.1667 16.123 16.1667 13.8636C16.1667 11.6043 14.3012 9.77273 12 9.77273ZM12 11.4091C10.6193 11.4091 9.5 12.508 9.5 13.8636C9.5 15.2192 10.6193 16.3182 12 16.3182C13.3807 16.3182 14.5 15.2192 14.5 13.8636C14.5 12.508 13.3807 11.4091 12 11.4091ZM16.7222 10.5909C16.7222 10.139 17.0953 9.77273 17.5556 9.77273H18.6667C19.1269 9.77273 19.5 10.139 19.5 10.5909C19.5 11.0428 19.1269 11.4091 18.6667 11.4091H17.5556C17.0953 11.4091 16.7222 11.0428 16.7222 10.5909Z" fill="#8688A1"/>
</svg>
