<svg width="21" height="21" viewBox="0 0 21 21" fill="none" xmlns="http://www.w3.org/2000/svg">
<g clip-path="url(#clip0_3106_35618)">
<path d="M6.70654 15.1875L10.0815 11.8125L13.4565 15.1875L14.769 13.875L11.394 10.5L14.769 7.125L13.4565 5.8125L10.0815 9.1875L6.70654 5.8125L5.39404 7.125L8.76904 10.5L5.39404 13.875L6.70654 15.1875ZM10.0815 19.875C8.78466 19.875 7.56592 19.6287 6.42529 19.1362C5.28467 18.6437 4.29248 17.9759 3.44873 17.1328C2.60498 16.2897 1.93717 15.2975 1.44529 14.1562C0.953419 13.015 0.707169 11.7962 0.706544 10.5C0.705919 9.20375 0.952169 7.985 1.44529 6.84375C1.93842 5.7025 2.60623 4.71031 3.44873 3.86719C4.29123 3.02406 5.28342 2.35625 6.42529 1.86375C7.56717 1.37125 8.78591 1.125 10.0815 1.125C11.3772 1.125 12.5959 1.37125 13.7378 1.86375C14.8797 2.35625 15.8718 3.02406 16.7143 3.86719C17.5568 4.71031 18.225 5.7025 18.7187 6.84375C19.2125 7.985 19.4584 9.20375 19.4565 10.5C19.4547 11.7962 19.2084 13.015 18.7178 14.1562C18.2272 15.2975 17.5593 16.2897 16.7143 17.1328C15.8693 17.9759 14.8772 18.6441 13.7378 19.1372C12.5984 19.6303 11.3797 19.8762 10.0815 19.875ZM10.0815 18C12.1753 18 13.9487 17.2734 15.4018 15.8203C16.855 14.3672 17.5815 12.5937 17.5815 10.5C17.5815 8.40625 16.855 6.63281 15.4018 5.17969C13.9487 3.72656 12.1753 3 10.0815 3C7.98779 3 6.21435 3.72656 4.76123 5.17969C3.3081 6.63281 2.58154 8.40625 2.58154 10.5C2.58154 12.5937 3.3081 14.3672 4.76123 15.8203C6.21435 17.2734 7.98779 18 10.0815 18Z" fill="#FF0000"/>
</g>
<defs>
<clipPath id="clip0_3106_35618">
<rect width="20" height="20" fill="white" transform="translate(0.081543 0.5)"/>
</clipPath>
</defs>
</svg>
