<svg width="32" height="31" viewBox="0 0 32 31" fill="none" xmlns="http://www.w3.org/2000/svg">
<path d="M3.75 10.75C3.75 8.6498 3.75 7.5997 4.15873 6.79754C4.51825 6.09193 5.09193 5.51825 5.79754 5.15873C6.5997 4.75 7.6498 4.75 9.75 4.75H20.25C22.3502 4.75 23.4003 4.75 24.2025 5.15873C24.9081 5.51825 25.4817 6.09193 25.8413 6.79754C26.25 7.5997 26.25 8.6498 26.25 10.75V17.875C26.25 19.6223 26.25 20.4959 25.9645 21.1851C25.5839 22.1039 24.8539 22.8339 23.9351 23.2145C23.2459 23.5 22.3723 23.5 20.625 23.5C20.0143 23.5 19.7089 23.5 19.4256 23.5669C19.0479 23.656 18.6961 23.8319 18.3981 24.0806C18.1747 24.2671 17.9914 24.5114 17.625 25L15.8 27.4333C15.5286 27.7952 15.3929 27.9761 15.2265 28.0408C15.0808 28.0975 14.9192 28.0975 14.7735 28.0408C14.6071 27.9761 14.4714 27.7952 14.2 27.4333L12.375 25C12.0086 24.5114 11.8253 24.2671 11.6019 24.0806C11.3039 23.8319 10.9521 23.656 10.5744 23.5669C10.2911 23.5 9.98572 23.5 9.375 23.5C7.62772 23.5 6.75408 23.5 6.06494 23.2145C5.14608 22.8339 4.41605 22.1039 4.03545 21.1851C3.75 20.4959 3.75 19.6223 3.75 17.875V10.75Z" stroke="#808080" stroke-width="2.5" stroke-linecap="round" stroke-linejoin="round"/>
<circle cx="25.2891" cy="5.28906" r="5.28906" fill="#D60000"/>
</svg>
