<svg width="32" height="31" viewBox="0 0 32 31" fill="none" xmlns="http://www.w3.org/2000/svg">
<path d="M4.75 10.75C4.75 8.6498 4.75 7.5997 5.15873 6.79754C5.51825 6.09193 6.09193 5.51825 6.79754 5.15873C7.5997 4.75 8.6498 4.75 10.75 4.75H21.25C23.3502 4.75 24.4003 4.75 25.2025 5.15873C25.9081 5.51825 26.4817 6.09193 26.8413 6.79754C27.25 7.5997 27.25 8.6498 27.25 10.75V17.875C27.25 19.6223 27.25 20.4959 26.9645 21.1851C26.5839 22.1039 25.8539 22.8339 24.9351 23.2145C24.2459 23.5 23.3723 23.5 21.625 23.5C21.0143 23.5 20.7089 23.5 20.4256 23.5669C20.0479 23.656 19.6961 23.8319 19.3981 24.0806C19.1747 24.2671 18.9914 24.5114 18.625 25L16.8 27.4333C16.5286 27.7952 16.3929 27.9761 16.2265 28.0408C16.0808 28.0975 15.9192 28.0975 15.7735 28.0408C15.6071 27.9761 15.4714 27.7952 15.2 27.4333L13.375 25C13.0086 24.5114 12.8253 24.2671 12.6019 24.0806C12.3039 23.8319 11.9521 23.656 11.5744 23.5669C11.2911 23.5 10.9857 23.5 10.375 23.5C8.62772 23.5 7.75408 23.5 7.06494 23.2145C6.14608 22.8339 5.41605 22.1039 5.03545 21.1851C4.75 20.4959 4.75 19.6223 4.75 17.875V10.75Z" fill="#1656A5" stroke="#1656A5" stroke-width="2.5" stroke-linecap="round" stroke-linejoin="round"/>
</svg>
