<svg width="21" height="21" viewBox="0 0 21 21" fill="none" xmlns="http://www.w3.org/2000/svg">
<g clip-path="url(#clip0_3106_35606)">
<path d="M8.52391 14.1767L4.90771 10.5596L6.11283 9.3545L8.52391 11.7647L13.3444 6.94342L14.5503 8.14939L8.52391 14.1767Z" fill="white"/>
<path fill-rule="evenodd" clip-rule="evenodd" d="M0.646484 10.5C0.646484 5.32244 4.84393 1.125 10.0215 1.125C15.199 1.125 19.3965 5.32244 19.3965 10.5C19.3965 15.6776 15.199 19.875 10.0215 19.875C4.84393 19.875 0.646484 15.6776 0.646484 10.5ZM10.0215 18.1705C9.01419 18.1705 8.01675 17.9721 7.08613 17.5866C6.15551 17.2011 5.30992 16.6361 4.59765 15.9238C3.88539 15.2116 3.32038 14.366 2.93491 13.4354C2.54943 12.5047 2.35103 11.5073 2.35103 10.5C2.35103 9.4927 2.54943 8.49527 2.93491 7.56464C3.32038 6.63402 3.88539 5.78844 4.59765 5.07617C5.30992 4.3639 6.15551 3.7989 7.08613 3.41342C8.01675 3.02795 9.01419 2.82955 10.0215 2.82955C12.0558 2.82955 14.0068 3.63768 15.4453 5.07617C16.8838 6.51466 17.6919 8.46567 17.6919 10.5C17.6919 12.5343 16.8838 14.4853 15.4453 15.9238C14.0068 17.3623 12.0558 18.1705 10.0215 18.1705Z" fill="white"/>
</g>
<defs>
<clipPath id="clip0_3106_35606">
<rect width="20" height="20" fill="white" transform="translate(0.0214844 0.5)"/>
</clipPath>
</defs>
</svg>
