<svg width="28" height="28" viewBox="0 0 28 28" fill="none" xmlns="http://www.w3.org/2000/svg">
<circle cx="14.0021" cy="14.0029" r="13.8615" fill="white"/>
<path d="M11.4181 17.1495L19.8848 8.68277C20.0847 8.48296 20.3178 8.38306 20.5842 8.38306C20.8506 8.38306 21.0837 8.48296 21.2835 8.68277C21.4833 8.88257 21.5832 9.12001 21.5832 9.39507C21.5832 9.67014 21.4833 9.90724 21.2835 10.1064L12.1174 19.2974C11.9176 19.4972 11.6845 19.5971 11.4181 19.5971C11.1517 19.5971 10.9186 19.4972 10.7188 19.2974L6.42295 15.0016C6.22314 14.8018 6.12723 14.5647 6.13523 14.2903C6.14322 14.0159 6.24745 13.7785 6.44792 13.578C6.64839 13.3775 6.88583 13.2776 7.16023 13.2783C7.43463 13.279 7.67173 13.3789 7.87154 13.578L11.4181 17.1495Z" fill="url(#paint0_linear_3406_4276)"/>
<defs>
<linearGradient id="paint0_linear_3406_4276" x1="6.13477" y1="13.9901" x2="21.5832" y2="13.9901" gradientUnits="userSpaceOnUse">
<stop stop-color="#185CAF"/>
<stop offset="1" stop-color="#104280"/>
</linearGradient>
</defs>
</svg>
