<svg width="21" height="21" viewBox="0 0 21 21" fill="none" xmlns="http://www.w3.org/2000/svg">
<path d="M15.0049 10.7922C17.7756 10.7922 20.0215 13.0382 20.0215 15.8088C20.0215 18.5795 17.7756 20.8254 15.0049 20.8254C12.2342 20.8254 9.98828 18.5795 9.98828 15.8088C9.98828 13.0382 12.2342 10.7922 15.0049 10.7922ZM15.0049 11.7955C13.9405 11.7955 12.9197 12.2184 12.1671 12.971C11.4144 13.7236 10.9916 14.7444 10.9916 15.8088C10.9916 16.8732 11.4144 17.894 12.1671 18.6466C12.9197 19.3993 13.9405 19.8221 15.0049 19.8221C16.0693 19.8221 17.0901 19.3993 17.8427 18.6466C18.5954 17.894 19.0182 16.8732 19.0182 15.8088C19.0182 14.7444 18.5954 13.7236 17.8427 12.971C17.0901 12.2184 16.0693 11.7955 15.0049 11.7955ZM15.0049 12.7989C15.1278 12.7989 15.2464 12.844 15.3382 12.9256C15.43 13.0073 15.4887 13.1198 15.503 13.2418L15.5066 13.3005V15.6011L16.8646 16.9591C16.9545 17.0494 17.0068 17.1706 17.0106 17.2979C17.0145 17.4253 16.9698 17.5494 16.8855 17.645C16.8012 17.7406 16.6837 17.8006 16.5568 17.8127C16.4299 17.8247 16.3032 17.7881 16.2024 17.7101L16.1552 17.6685L14.6502 16.1635C14.5723 16.0855 14.5222 15.9839 14.5077 15.8745L14.5032 15.8088V13.3005C14.5032 13.1675 14.5561 13.0399 14.6502 12.9458C14.7442 12.8517 14.8718 12.7989 15.0049 12.7989Z" fill="#FAA300"/>
<rect x="2.61279" y="3.61613" width="11.1628" height="1.59468" fill="#323232"/>
<rect x="2.61279" y="6.8055" width="9.76744" height="1.59468" fill="#323232"/>
<rect x="2.61279" y="9.99487" width="8.37209" height="1.59468" fill="#323232"/>
<path d="M16.3672 9.59595H14.7725V2.42017H1.61621V19.1643H9.58984V20.759H0.0214844V0.825439H16.3672V9.59595Z" fill="#323232"/>
</svg>
