<svg width="20" height="20" viewBox="0 0 20 20" fill="none" xmlns="http://www.w3.org/2000/svg">
<path fill-rule="evenodd" clip-rule="evenodd" d="M12.988 1.66675C13.43 1.66684 13.8539 1.8425 14.1663 2.15508L17.0113 5.00008C17.3239 5.31257 17.4996 5.73642 17.4997 6.17841V13.3334C17.4997 13.7754 17.3241 14.1994 17.0115 14.5119C16.699 14.8245 16.275 15.0001 15.833 15.0001H14.1663V16.6667C14.1663 17.1088 13.9907 17.5327 13.6782 17.8453C13.3656 18.1578 12.9417 18.3334 12.4997 18.3334H4.99967C4.55765 18.3334 4.13372 18.1578 3.82116 17.8453C3.5086 17.5327 3.33301 17.1088 3.33301 16.6667V6.66675C3.33301 6.22472 3.5086 5.8008 3.82116 5.48824C4.13372 5.17568 4.55765 5.00008 4.99967 5.00008H6.66634V3.33341C6.66634 2.89139 6.84194 2.46746 7.1545 2.1549C7.46706 1.84234 7.89098 1.66675 8.33301 1.66675H12.988ZM6.66634 6.66675H4.99967V16.6667H12.4997V15.0001H8.33301C7.89098 15.0001 7.46706 14.8245 7.1545 14.5119C6.84194 14.1994 6.66634 13.7754 6.66634 13.3334V6.66675ZM11.6663 3.33341H8.33301V13.3334H15.833V7.50008H12.9163C12.6056 7.50007 12.306 7.38432 12.076 7.1754C11.846 6.96648 11.702 6.67938 11.6722 6.37008L11.6663 6.25008V3.33341ZM13.333 3.67841V5.83342H15.488L13.333 3.67841Z" fill="#323232"/>
</svg>
