<svg width="46" height="45" viewBox="0 0 46 45" fill="none" xmlns="http://www.w3.org/2000/svg">
<rect x="0.924805" width="44.1509" height="45" rx="6.79245" fill="#323232" fill-opacity="0.05"/>
<path d="M9.52148 19.5989C9.52148 14.1288 9.52148 11.3938 11.2208 9.69445C12.9202 7.99512 15.6552 7.99512 21.1253 7.99512H24.0262C29.4962 7.99512 32.2314 7.99512 33.9306 9.69445C35.63 11.3938 35.63 14.1288 35.63 19.5989V25.4008C35.63 30.8708 35.63 33.6059 33.9306 35.3052C32.2314 37.0045 29.4962 37.0045 24.0262 37.0045H21.1253C15.6552 37.0045 12.9202 37.0045 11.2208 35.3052C9.52148 33.6059 9.52148 30.8708 9.52148 25.4008V19.5989Z" stroke="#1C274C" stroke-width="2"/>
<path d="M16.7734 22.5H28.3772" stroke="#1C274C" stroke-width="2" stroke-linecap="round"/>
<path d="M16.7734 16.698H28.3772" stroke="#1C274C" stroke-width="2" stroke-linecap="round"/>
<path d="M16.7734 28.3018H24.0258" stroke="#1C274C" stroke-width="2" stroke-linecap="round"/>
</svg>
