<svg width="20" height="20" viewBox="0 0 20 20" fill="none" xmlns="http://www.w3.org/2000/svg">
<path fill-rule="evenodd" clip-rule="evenodd" d="M9.12876 2.32808C8.4927 2.61128 8.0055 3.45512 7.03111 5.14282L2.45354 13.0714C1.47915 14.7591 0.991953 15.6029 1.06473 16.2954C1.12821 16.8994 1.44499 17.448 1.93631 17.805C2.49959 18.2143 3.47399 18.2143 5.42277 18.2143H14.5779C16.5267 18.2143 17.5011 18.2143 18.0644 17.805C18.5557 17.448 18.8725 16.8994 18.9359 16.2954C19.0087 15.6029 18.5215 14.7591 17.5471 13.0714L12.9696 5.14282C11.9952 3.45512 11.508 2.61128 10.8719 2.32808C10.3171 2.08107 9.68356 2.08107 9.12876 2.32808ZM10.7725 7.57127L10.6912 12.1786C10.6845 12.5553 10.3773 12.8571 10.0006 12.8571C9.62393 12.8571 9.31672 12.5553 9.31007 12.1786L9.22876 7.57127C9.22115 7.13966 9.56894 6.78568 10.0006 6.78568C10.4323 6.78568 10.7801 7.13966 10.7725 7.57127ZM10.8932 14.6428C10.8932 15.1359 10.4934 15.5357 10.0003 15.5357C9.50722 15.5357 9.10748 15.1359 9.10748 14.6428C9.10748 14.1497 9.50722 13.75 10.0003 13.75C10.4934 13.75 10.8932 14.1497 10.8932 14.6428Z" fill="white"/>
</svg>
