<svg width="20" height="20" viewBox="0 0 20 20" fill="none" xmlns="http://www.w3.org/2000/svg">
<path d="M5 2.5C3.62919 2.5 2.5 3.62919 2.5 5V6.66667H4.16667V5C4.16667 4.52914 4.52914 4.16667 5 4.16667H6.66667V2.5H5ZM13.3333 2.5V4.16667H15C15.4709 4.16667 15.8333 4.52914 15.8333 5V6.66667H17.5V5C17.5 3.62919 16.3708 2.5 15 2.5H13.3333ZM5.83333 6.66667V9.16667H7.5V6.66667H5.83333ZM9.16667 6.66667V10H8.33333V11.6667H9.16667C10.0776 11.6667 10.8333 10.9109 10.8333 10V6.66667H9.16667ZM12.5 6.66667V9.16667H14.1667V6.66667H12.5ZM8.08919 12.7441L6.91081 13.9225C6.91081 13.9225 7.23623 14.2374 7.75228 14.4954C8.26833 14.7535 9.02778 15 10 15C10.9722 15 11.7317 14.7535 12.2477 14.4954C12.7638 14.2374 13.0892 13.9225 13.0892 13.9225L11.9108 12.7441C11.9108 12.7441 11.8196 12.8459 11.5023 13.0046C11.185 13.1632 10.6944 13.3333 10 13.3333C9.30556 13.3333 8.81501 13.1632 8.49772 13.0046C8.18043 12.8459 8.08919 12.7441 8.08919 12.7441ZM2.5 13.3333V15C2.5 16.3708 3.62919 17.5 5 17.5H6.66667V15.8333H5C4.52914 15.8333 4.16667 15.4709 4.16667 15V13.3333H2.5ZM15.8333 13.3333V15C15.8333 15.4709 15.4709 15.8333 15 15.8333H13.3333V17.5H15C16.3708 17.5 17.5 16.3708 17.5 15V13.3333H15.8333Z" fill="black"/>
</svg>
