<svg width="24" height="24" viewBox="0 0 24 24" fill="none" xmlns="http://www.w3.org/2000/svg">
<ellipse cx="12.0004" cy="12.0005" rx="11.9994" ry="11.9995" fill="white"/>
<path d="M23.3135 7.99902H15.9199C16.2411 10.5624 16.243 13.3869 15.9262 15.9535H23.3292C23.7614 14.7153 23.999 13.3856 23.999 12.0002C23.9992 10.5965 23.7561 9.2505 23.3135 7.99902Z" fill="#3757A6"/>
<path d="M15.9202 7.99904H23.3136C23.3125 7.99524 23.3114 7.99205 23.3098 7.9886C21.7742 3.65824 17.8236 0.472235 13.0771 0.0493164C14.9141 1.05617 15.4507 4.24618 15.9202 7.99904Z" fill="white"/>
<path d="M13.0781 23.9504C17.8331 23.5267 21.7891 20.3297 23.3189 15.9877C23.3229 15.9762 23.3263 15.9648 23.3305 15.9536H15.9272C15.4613 19.7268 14.9225 22.9393 13.0781 23.9504Z" fill="#E73B36"/>
<path d="M0 12.0002C0 13.3858 0.237983 14.7153 0.669766 15.9535H16.5444C16.8615 13.3867 16.8593 10.5624 16.5385 7.99902H0.685726C0.2431 9.25055 0 10.5966 0 12.0002Z" fill="#3757A6"/>
<path d="M0.689347 7.98853C0.688232 7.99193 0.687067 7.99517 0.685547 7.99897H16.5384C16.0685 4.24606 14.9142 1.05611 13.0775 0.0492485C12.7222 0.0177842 12.363 0 11.9996 0C6.77941 -5.06671e-05 2.34023 3.3339 0.689347 7.98853Z" fill="white"/>
<path d="M16.5445 15.9536H0.669922C0.673925 15.9648 0.677674 15.9762 0.681474 15.9877C2.32577 20.6543 6.77133 24 11.9999 24C12.3633 24 12.7225 23.9822 13.0777 23.9504C14.9223 22.9393 16.0786 19.7268 16.5445 15.9536Z" fill="#E73B36"/>
</svg>
