<svg width="17" height="16" viewBox="0 0 17 16" fill="none" xmlns="http://www.w3.org/2000/svg">
<path fill-rule="evenodd" clip-rule="evenodd" d="M10.5215 2C10.5215 1.72386 10.7453 1.5 11.0215 1.5H14.0215C14.2976 1.5 14.5215 1.72386 14.5215 2V5C14.5215 5.27614 14.2976 5.5 14.0215 5.5C13.7453 5.5 13.5215 5.27614 13.5215 5V2.5H11.0215C10.7453 2.5 10.5215 2.27614 10.5215 2Z" fill="black"/>
<path fill-rule="evenodd" clip-rule="evenodd" d="M14.0215 10.5C14.2976 10.5 14.5215 10.7239 14.5215 11V14C14.5215 14.2761 14.2976 14.5 14.0215 14.5H11.0215C10.7453 14.5 10.5215 14.2761 10.5215 14C10.5215 13.7239 10.7453 13.5 11.0215 13.5H13.5215V11C13.5215 10.7239 13.7453 10.5 14.0215 10.5Z" fill="black"/>
<path fill-rule="evenodd" clip-rule="evenodd" d="M2.02148 10.5C2.29763 10.5 2.52148 10.7239 2.52148 11V13.5H5.02148C5.29763 13.5 5.52148 13.7239 5.52148 14C5.52148 14.2761 5.29763 14.5 5.02148 14.5H2.02148C1.74534 14.5 1.52148 14.2761 1.52148 14V11C1.52148 10.7239 1.74534 10.5 2.02148 10.5Z" fill="black"/>
<path fill-rule="evenodd" clip-rule="evenodd" d="M1.52148 2C1.52148 1.72386 1.74534 1.5 2.02148 1.5H5.02148C5.29763 1.5 5.52148 1.72386 5.52148 2C5.52148 2.27614 5.29763 2.5 5.02148 2.5H2.52148V5C2.52148 5.27614 2.29763 5.5 2.02148 5.5C1.74534 5.5 1.52148 5.27614 1.52148 5V2Z" fill="black"/>
</svg>
