<svg width="12" height="9" viewBox="0 0 12 9" fill="none" xmlns="http://www.w3.org/2000/svg">
<path d="M1.48666 1.69994H2.49126V3.12346C2.33399 3.17498 2.17537 3.21294 2.0154 3.23734C1.85542 3.26175 1.67375 3.27395 1.47039 3.27395C1.16942 3.27395 0.915899 3.2143 0.709828 3.09499C0.503757 2.97298 0.346492 2.8008 0.238034 2.57846C0.132287 2.35341 0.0794134 2.08768 0.0794134 1.78129C0.0794134 1.4776 0.139066 1.21459 0.25837 0.992253C0.377674 0.769913 0.548496 0.597735 0.770836 0.475719C0.995888 0.350992 1.26703 0.288628 1.58427 0.288628C1.74696 0.288628 1.90016 0.303541 2.04387 0.333367C2.19029 0.363194 2.32586 0.405221 2.45059 0.459451L2.3123 0.776692C2.20927 0.730597 2.09267 0.691281 1.96252 0.658743C1.83509 0.626206 1.70222 0.609937 1.56394 0.609937C1.33346 0.609937 1.13553 0.657387 0.970129 0.752289C0.804729 0.84719 0.678646 0.982763 0.59188 1.15901C0.505113 1.33254 0.461729 1.53997 0.461729 1.78129C0.461729 2.01176 0.498334 2.21648 0.571544 2.39543C0.647465 2.57168 0.765413 2.70996 0.92539 2.81029C1.08537 2.9079 1.2955 2.95671 1.5558 2.95671C1.64257 2.95671 1.71849 2.954 1.78357 2.94857C1.85135 2.94044 1.91236 2.93095 1.96659 2.9201C2.02353 2.90926 2.07641 2.89841 2.12521 2.88756V2.02532H1.48666V1.69994ZM5.71874 1.77722C5.71874 2.00227 5.69027 2.20699 5.63332 2.39137C5.57638 2.57304 5.49097 2.7303 5.37709 2.86316C5.26592 2.99602 5.12628 3.0977 4.95817 3.1682C4.79277 3.2387 4.60026 3.27395 4.38063 3.27395C4.15287 3.27395 3.95493 3.2387 3.78682 3.1682C3.61871 3.09499 3.47907 2.99331 3.3679 2.86316C3.25673 2.7303 3.17403 2.57168 3.1198 2.3873C3.06557 2.20292 3.03846 1.99821 3.03846 1.77315C3.03846 1.47489 3.08726 1.21459 3.18487 0.992253C3.28249 0.769913 3.43026 0.596379 3.6282 0.471652C3.82885 0.346925 4.08101 0.284561 4.3847 0.284561C4.67482 0.284561 4.91885 0.346925 5.11679 0.471652C5.31473 0.593668 5.46386 0.767202 5.56418 0.992253C5.66722 1.21459 5.71874 1.47625 5.71874 1.77722ZM3.42484 1.77722C3.42484 2.02125 3.45873 2.23139 3.52652 2.40764C3.59431 2.58388 3.6987 2.71945 3.83969 2.81436C3.9834 2.90926 4.16371 2.95671 4.38063 2.95671C4.60026 2.95671 4.77921 2.90926 4.9175 2.81436C5.05849 2.71945 5.16289 2.58388 5.23067 2.40764C5.29846 2.23139 5.33235 2.02125 5.33235 1.77722C5.33235 1.41117 5.25643 1.12511 5.10459 0.919044C4.95275 0.710261 4.71278 0.60587 4.3847 0.60587C4.16507 0.60587 3.9834 0.65332 3.83969 0.748221C3.6987 0.840411 3.59431 0.974628 3.52652 1.15087C3.45873 1.32441 3.42484 1.53319 3.42484 1.77722ZM8.89623 1.77722C8.89623 2.00227 8.86776 2.20699 8.81082 2.39137C8.75388 2.57304 8.66847 2.7303 8.55459 2.86316C8.44342 2.99602 8.30378 3.0977 8.13567 3.1682C7.97027 3.2387 7.77775 3.27395 7.55812 3.27395C7.33036 3.27395 7.13242 3.2387 6.96431 3.1682C6.7962 3.09499 6.65656 2.99331 6.54539 2.86316C6.43422 2.7303 6.35152 2.57168 6.29729 2.3873C6.24307 2.20292 6.21595 1.99821 6.21595 1.77315C6.21595 1.47489 6.26476 1.21459 6.36237 0.992253C6.45998 0.769913 6.60776 0.596379 6.80569 0.471652C7.00634 0.346925 7.25851 0.284561 7.56219 0.284561C7.85232 0.284561 8.09635 0.346925 8.29429 0.471652C8.49222 0.593668 8.64135 0.767202 8.74168 0.992253C8.84471 1.21459 8.89623 1.47625 8.89623 1.77722ZM6.60233 1.77722C6.60233 2.02125 6.63623 2.23139 6.70401 2.40764C6.7718 2.58388 6.87619 2.71945 7.01719 2.81436C7.1609 2.90926 7.34121 2.95671 7.55812 2.95671C7.77775 2.95671 7.95671 2.90926 8.09499 2.81436C8.23599 2.71945 8.34038 2.58388 8.40817 2.40764C8.47595 2.23139 8.50985 2.02125 8.50985 1.77722C8.50985 1.41117 8.43393 1.12511 8.28208 0.919044C8.13024 0.710261 7.89028 0.60587 7.56219 0.60587C7.34256 0.60587 7.1609 0.65332 7.01719 0.748221C6.87619 0.840411 6.7718 0.974628 6.70401 1.15087C6.63623 1.32441 6.60233 1.53319 6.60233 1.77722ZM11.8663 1.75282C11.8663 2.07819 11.8053 2.3507 11.6833 2.57032C11.564 2.78995 11.3918 2.95535 11.1667 3.06652C10.9417 3.17769 10.6692 3.23328 10.3492 3.23328H9.53986V0.3293H10.4346C10.7275 0.3293 10.981 0.38353 11.1952 0.491988C11.4094 0.600447 11.5748 0.760423 11.6914 0.971917C11.808 1.1807 11.8663 1.441 11.8663 1.75282ZM11.4799 1.76502C11.4799 1.50743 11.4365 1.29594 11.3498 1.13054C11.2657 0.965138 11.141 0.843122 10.9756 0.76449C10.8129 0.683146 10.615 0.642474 10.3818 0.642474H9.90591V2.9201H10.3004C10.6936 2.9201 10.9878 2.82385 11.183 2.63133C11.3809 2.43611 11.4799 2.14734 11.4799 1.76502ZM2.41204 8.23328H2.046V5.65061H1.13901V5.3293H3.31496V5.65061H2.41204V8.23328ZM5.97354 8.23328H5.60749V6.8789H4.1189V8.23328H3.75285V5.3293H4.1189V6.55759H5.60749V5.3293H5.97354V8.23328ZM7.56874 5.3293C7.81006 5.3293 8.00799 5.36048 8.16255 5.42285C8.31981 5.4825 8.4364 5.57333 8.51233 5.69535C8.58825 5.81736 8.62621 5.97056 8.62621 6.15494C8.62621 6.30949 8.59774 6.43829 8.5408 6.54132C8.48386 6.64436 8.41065 6.72706 8.32117 6.78942C8.2344 6.84907 8.14221 6.89653 8.0446 6.93177L8.84177 8.23328H8.41471L7.71109 7.03345H7.13355V8.23328H6.7675V5.3293H7.56874ZM7.5484 5.64654H7.13355V6.72435H7.56874C7.726 6.72435 7.8548 6.70401 7.95512 6.66334C8.05544 6.61996 8.12865 6.55759 8.17475 6.47625C8.22355 6.39491 8.24796 6.29323 8.24796 6.17121C8.24796 6.04377 8.2222 5.94209 8.17068 5.86617C8.12188 5.79025 8.04595 5.73466 7.94292 5.69942C7.83988 5.66417 7.70838 5.64654 7.5484 5.64654ZM11.5061 7.20834C11.5061 7.40899 11.4654 7.59066 11.384 7.75335C11.3027 7.91332 11.178 8.04076 11.0099 8.13566C10.8445 8.22785 10.633 8.27395 10.3754 8.27395C10.0148 8.27395 9.73955 8.17634 9.54974 7.98111C9.36265 7.78317 9.26911 7.52287 9.26911 7.20021V5.3293H9.63516V7.21241C9.63516 7.44831 9.69752 7.63133 9.82225 7.76148C9.94969 7.89163 10.1408 7.95671 10.3957 7.95671C10.572 7.95671 10.7143 7.92553 10.8228 7.86316C10.9339 7.79809 11.0153 7.70996 11.0668 7.59879C11.1183 7.48491 11.1441 7.35476 11.1441 7.20834V5.3293H11.5061V7.20834Z" fill="white"/>
</svg>
