<svg width="21" height="21" viewBox="0 0 21 21" fill="none" xmlns="http://www.w3.org/2000/svg">
<path d="M10.4987 20.9168C4.74557 20.9168 0.0820312 16.2533 0.0820312 10.5002C0.0820312 4.74704 4.74557 0.0834961 10.4987 0.0834961C16.2518 0.0834961 20.9154 4.74704 20.9154 10.5002C20.9154 16.2533 16.2518 20.9168 10.4987 20.9168ZM10.4987 18.8335C12.7088 18.8335 14.8285 17.9555 16.3913 16.3927C17.9541 14.8299 18.832 12.7103 18.832 10.5002C18.832 8.29002 17.9541 6.17041 16.3913 4.60761C14.8285 3.0448 12.7088 2.16683 10.4987 2.16683C8.28856 2.16683 6.16894 3.0448 4.60614 4.60761C3.04334 6.17041 2.16536 8.29002 2.16536 10.5002C2.16536 12.7103 3.04334 14.8299 4.60614 16.3927C6.16894 17.9555 8.28856 18.8335 10.4987 18.8335ZM9.46016 14.6668L5.04036 10.247L6.51328 8.77412L9.46016 11.721L15.3518 5.82829L16.8258 7.3012L9.46016 14.6668Z" fill="#0D6EFD" fill-opacity="0.8"/>
</svg>
