<svg width="30" height="31" viewBox="0 0 30 31" fill="none" xmlns="http://www.w3.org/2000/svg">
<path d="M16.2279 3.955C15.7887 3.61343 15.5691 3.44265 15.3267 3.377C15.1127 3.31908 14.8873 3.31908 14.6733 3.377C14.4309 3.44265 14.2113 3.61343 13.7721 3.955L5.29424 10.5489C4.72753 10.9897 4.44417 11.2101 4.24003 11.4861C4.05921 11.7306 3.9245 12.006 3.84253 12.2988C3.75 12.6294 3.75 12.9884 3.75 13.7063V22.75C3.75 24.1501 3.75 24.8502 4.02248 25.385C4.26217 25.8554 4.64462 26.2378 5.11502 26.4775C5.6498 26.75 6.34987 26.75 7.75 26.75H10.25C10.6 26.75 10.775 26.75 10.9087 26.6819C11.0263 26.6219 11.122 26.5263 11.1819 26.4087C11.25 26.275 11.25 26.1 11.25 25.75V17.5C11.25 16.7999 11.25 16.4499 11.3862 16.1825C11.5061 15.9473 11.6973 15.7561 11.9325 15.6362C12.1999 15.5 12.5499 15.5 13.25 15.5H16.75C17.4501 15.5 17.8001 15.5 18.0675 15.6362C18.3027 15.7561 18.4939 15.9473 18.6138 16.1825C18.75 16.4499 18.75 16.7999 18.75 17.5V25.75C18.75 26.1 18.75 26.275 18.8181 26.4087C18.878 26.5263 18.9737 26.6219 19.0913 26.6819C19.225 26.75 19.4 26.75 19.75 26.75H22.25C23.6501 26.75 24.3502 26.75 24.885 26.4775C25.3554 26.2378 25.7378 25.8554 25.9775 25.385C26.25 24.8502 26.25 24.1501 26.25 22.75V13.7063C26.25 12.9884 26.25 12.6294 26.1575 12.2988C26.0755 12.006 25.9408 11.7306 25.76 11.4861C25.5558 11.2101 25.2725 10.9897 24.7058 10.5489L16.2279 3.955Z" fill="#1656A5" stroke="#1656A5" stroke-width="2.5" stroke-linecap="round" stroke-linejoin="round"/>
</svg>
