<svg width="26" height="27" viewBox="0 0 26 27" fill="none" xmlns="http://www.w3.org/2000/svg">
<path d="M14.2279 2.45503C13.7887 2.11346 13.5691 1.94268 13.3267 1.87703C13.1127 1.81911 12.8873 1.81911 12.6733 1.87703C12.4309 1.94268 12.2113 2.11346 11.7721 2.45503L3.29424 9.04894C2.72753 9.48971 2.44417 9.7101 2.24003 9.9861C2.05921 10.2306 1.9245 10.506 1.84253 10.7988C1.75 11.1294 1.75 11.4884 1.75 12.2063V21.25C1.75 22.6501 1.75 23.3502 2.02248 23.885C2.26217 24.3554 2.64462 24.7378 3.11502 24.9775C3.6498 25.25 4.34987 25.25 5.75 25.25H8.25C8.60003 25.25 8.77505 25.25 8.90874 25.1819C9.02635 25.122 9.12196 25.0264 9.18188 24.9088C9.25 24.7751 9.25 24.6 9.25 24.25V16C9.25 15.2999 9.25 14.9499 9.38624 14.6825C9.50608 14.4473 9.69731 14.2561 9.93251 14.1363C10.1999 14 10.5499 14 11.25 14H14.75C15.4501 14 15.8001 14 16.0675 14.1363C16.3027 14.2561 16.4939 14.4473 16.6138 14.6825C16.75 14.9499 16.75 15.2999 16.75 16V24.25C16.75 24.6 16.75 24.7751 16.8181 24.9088C16.878 25.0264 16.9737 25.122 17.0913 25.1819C17.225 25.25 17.4 25.25 17.75 25.25H20.25C21.6501 25.25 22.3502 25.25 22.885 24.9775C23.3554 24.7378 23.7378 24.3554 23.9775 23.885C24.25 23.3502 24.25 22.6501 24.25 21.25V12.2063C24.25 11.4884 24.25 11.1294 24.1575 10.7988C24.0755 10.506 23.9408 10.2306 23.76 9.9861C23.5558 9.7101 23.2725 9.48971 22.7058 9.04894L14.2279 2.45503Z" stroke="#808080" stroke-width="2.5" stroke-linecap="round" stroke-linejoin="round"/>
</svg>
