<svg width="20" height="20" viewBox="0 0 20 20" fill="none" xmlns="http://www.w3.org/2000/svg">
<path d="M7.50033 17.5C7.50033 17.9583 7.87533 18.3333 8.33366 18.3333H11.667C12.1253 18.3333 12.5003 17.9583 12.5003 17.5V16.6666H7.50033V17.5ZM10.0003 1.66663C6.78366 1.66663 4.16699 4.28329 4.16699 7.49996C4.16699 9.48329 5.15866 11.225 6.66699 12.2833V14.1666C6.66699 14.625 7.04199 15 7.50033 15H12.5003C12.9587 15 13.3337 14.625 13.3337 14.1666V12.2833C14.842 11.225 15.8337 9.48329 15.8337 7.49996C15.8337 4.28329 13.217 1.66663 10.0003 1.66663ZM12.3753 10.9166L11.667 11.4166V13.3333H8.33366V11.4166L7.62533 10.9166C6.50033 10.1333 5.83366 8.85829 5.83366 7.49996C5.83366 5.19996 7.70033 3.33329 10.0003 3.33329C12.3003 3.33329 14.167 5.19996 14.167 7.49996C14.167 8.85829 13.5003 10.1333 12.3753 10.9166Z" fill="black"/>
</svg>
