<svg width="25" height="25" viewBox="0 0 25 25" fill="none" xmlns="http://www.w3.org/2000/svg">
<path d="M14.0626 8.33333H12.5001V13.5417L16.9584 16.1875L17.7084 14.9271L14.0626 12.7604V8.33333ZM13.5417 3.125C11.0553 3.125 8.67077 4.11272 6.91262 5.87087C5.15447 7.62903 4.16675 10.0136 4.16675 12.5H1.04175L5.16675 16.6979L9.37508 12.5H6.25008C6.25008 10.5661 7.01831 8.71147 8.38576 7.34401C9.75321 5.97656 11.6079 5.20833 13.5417 5.20833C15.4756 5.20833 17.3303 5.97656 18.6977 7.34401C20.0652 8.71147 20.8334 10.5661 20.8334 12.5C20.8334 14.4339 20.0652 16.2885 18.6977 17.656C17.3303 19.0234 15.4756 19.7917 13.5417 19.7917C11.5313 19.7917 9.70842 18.9688 8.39592 17.6458L6.91675 19.125C7.78301 20.0005 8.81502 20.6945 9.95251 21.1667C11.09 21.6389 12.3102 21.8797 13.5417 21.875C16.0282 21.875 18.4127 20.8873 20.1709 19.1291C21.929 17.371 22.9167 14.9864 22.9167 12.5C22.9167 10.0136 21.929 7.62903 20.1709 5.87087C18.4127 4.11272 16.0282 3.125 13.5417 3.125Z" fill="black"/>
</svg>
