<svg width="28" height="28" viewBox="0 0 28 28" fill="none" xmlns="http://www.w3.org/2000/svg">
<circle cx="14" cy="14" r="12.6" fill="#FF9401" stroke="white" stroke-width="2.8"/>
<g clip-path="url(#clip0_3383_5426)">
<path d="M13.9547 11.1924C13.6778 11.1924 13.4071 11.2745 13.1769 11.4283C12.9467 11.5822 12.7672 11.8008 12.6613 12.0566C12.5553 12.3124 12.5276 12.5939 12.5816 12.8655C12.6356 13.1371 12.7689 13.3865 12.9647 13.5823C13.1605 13.7781 13.41 13.9115 13.6816 13.9655C13.9531 14.0195 14.2346 13.9918 14.4904 13.8858C14.7463 13.7799 14.9649 13.6004 15.1187 13.3702C15.2726 13.14 15.3547 12.8693 15.3547 12.5924C15.3543 12.2212 15.2066 11.8654 14.9442 11.6029C14.6817 11.3404 14.3259 11.1928 13.9547 11.1924ZM13.9547 13.2924C13.8162 13.2924 13.6809 13.2513 13.5658 13.1744C13.4507 13.0975 13.361 12.9882 13.308 12.8603C13.255 12.7324 13.2411 12.5916 13.2681 12.4558C13.2951 12.32 13.3618 12.1953 13.4597 12.0974C13.5576 11.9995 13.6823 11.9328 13.8181 11.9058C13.9539 11.8788 14.0947 11.8927 14.2226 11.9457C14.3505 11.9986 14.4598 12.0884 14.5367 12.2035C14.6136 12.3186 14.6547 12.4539 14.6547 12.5924C14.6545 12.778 14.5807 12.9559 14.4494 13.0871C14.3182 13.2183 14.1403 13.2922 13.9547 13.2924Z" fill="white"/>
<path d="M16.6438 9.89963C15.9787 9.23464 15.0908 8.83961 14.1515 8.79078C13.2122 8.74195 12.2881 9.04278 11.5576 9.63521C10.8271 10.2276 10.3419 11.0697 10.1957 11.9988C10.0495 12.9279 10.2526 13.8783 10.7659 14.6664L13.4107 18.7267C13.4696 18.8171 13.5501 18.8913 13.6449 18.9427C13.7397 18.9941 13.8458 19.021 13.9536 19.021C14.0615 19.021 14.1676 18.9941 14.2624 18.9427C14.3572 18.8913 14.4377 18.8171 14.4965 18.7267L17.1414 14.6664C17.6177 13.9353 17.8282 13.0627 17.7376 12.1948C17.647 11.327 17.2608 10.5166 16.6438 9.89963ZM16.5549 14.2843L13.9536 18.2776L11.3523 14.2843C10.5561 13.062 10.7269 11.4262 11.7584 10.3946C12.0467 10.1063 12.3889 9.87763 12.7656 9.7216C13.1422 9.56558 13.5459 9.48528 13.9536 9.48528C14.3613 9.48528 14.765 9.56558 15.1417 9.7216C15.5184 9.87763 15.8606 10.1063 16.1489 10.3946C17.1804 11.4262 17.3512 13.062 16.5549 14.2843Z" fill="white"/>
</g>
<defs>
<clipPath id="clip0_3383_5426">
<rect width="11.2" height="11.2" fill="white" transform="translate(8.39941 8.40186)"/>
</clipPath>
</defs>
</svg>
