<svg width="20" height="20" viewBox="0 0 20 20" fill="none" xmlns="http://www.w3.org/2000/svg">
<path d="M14.9997 7.08333H14.1663V5.41667C14.1663 3.11667 12.2997 1.25 9.99968 1.25C7.69968 1.25 5.83301 3.11667 5.83301 5.41667V7.08333H4.99967C4.08301 7.08333 3.33301 7.83333 3.33301 8.75V17.0833C3.33301 18 4.08301 18.75 4.99967 18.75H14.9997C15.9163 18.75 16.6663 18 16.6663 17.0833V8.75C16.6663 7.83333 15.9163 7.08333 14.9997 7.08333ZM7.49967 5.41667C7.49967 4.03333 8.61634 2.91667 9.99968 2.91667C11.383 2.91667 12.4997 4.03333 12.4997 5.41667V7.08333H7.49967V5.41667ZM14.9997 17.0833H4.99967V8.75H14.9997V17.0833ZM9.99968 14.5833C10.9163 14.5833 11.6663 13.8333 11.6663 12.9167C11.6663 12 10.9163 11.25 9.99968 11.25C9.08301 11.25 8.33301 12 8.33301 12.9167C8.33301 13.8333 9.08301 14.5833 9.99968 14.5833Z" fill="black"/>
</svg>
