<svg width="121" height="26" viewBox="0 0 121 26" fill="none" xmlns="http://www.w3.org/2000/svg">
<path d="M34.7303 5.85913H37.3424V17.2968H44.4662V19.7109H34.7303V5.85913ZM46.8961 11.2218C47.8196 10.2455 49.0398 9.75742 50.5569 9.75742C52.074 9.75742 53.3009 10.2455 54.2376 11.2218C55.1874 12.198 55.6623 13.4051 55.6623 14.843C55.6623 16.2942 55.2006 17.5078 54.2771 18.4841C53.3537 19.4471 52.1202 19.9286 50.5767 19.9286C49.0332 19.9286 47.7998 19.4471 46.8763 18.4841C45.9661 17.5078 45.5109 16.2942 45.5109 14.843C45.5109 13.4051 45.9726 12.198 46.8961 11.2218ZM50.5767 11.9539C49.7456 11.9539 49.0926 12.2376 48.6177 12.8048C48.156 13.3721 47.9251 14.0515 47.9251 14.843C47.9251 15.6345 48.156 16.3139 48.6177 16.8812C49.0926 17.4353 49.7456 17.7123 50.5767 17.7123C51.4078 17.7123 52.0543 17.4353 52.516 16.8812C52.9909 16.3139 53.2284 15.6345 53.2284 14.843C53.2284 14.0779 52.9777 13.4051 52.4764 12.8246C51.9883 12.2442 51.3551 11.9539 50.5767 11.9539ZM64.962 10.2521L66.0504 8.90653L67.8313 10.2521L66.6045 11.6769C67.3564 12.574 67.7324 13.5436 67.7324 14.5858C67.7324 16.2876 66.9277 17.5078 65.3182 18.2466C66.9277 18.8271 67.7324 19.8824 67.7324 21.4127C67.7324 22.2966 67.462 23.0552 66.9211 23.6884C66.3934 24.3348 65.7338 24.8031 64.9423 25.0934C64.1639 25.3836 63.3196 25.5287 62.4094 25.5287C60.7208 25.5287 59.4081 25.1263 58.4715 24.3216C57.5348 23.5301 57.0929 22.4351 57.1457 21.0368H59.54C59.5005 21.6832 59.7643 22.1977 60.3316 22.5802C60.8988 22.976 61.5914 23.1805 62.4094 23.1937C63.1481 23.1937 63.8011 23.0354 64.3684 22.7188C64.9357 22.4153 65.2193 21.98 65.2193 21.4127C65.2193 20.8191 64.9818 20.3508 64.5069 20.0078C64.032 19.6648 63.346 19.4933 62.4489 19.4933C60.8263 19.4933 59.5269 19.0579 58.5506 18.1872C57.5876 17.3034 57.1061 16.1029 57.1061 14.5858C57.1061 13.0291 57.6272 11.8154 58.6694 10.9447C59.7247 10.074 60.9846 9.63869 62.4489 9.63869C63.5175 9.63869 64.3552 9.84317 64.962 10.2521ZM62.4489 11.8748C61.6046 11.8748 60.9054 12.1122 60.3514 12.5872C59.7973 13.0489 59.5203 13.7151 59.5203 14.5858C59.5203 15.4037 59.8039 16.0567 60.3712 16.5448C60.9384 17.0329 61.631 17.277 62.4489 17.277C63.2668 17.277 63.9462 17.0329 64.4871 16.5448C65.0412 16.0567 65.3182 15.4037 65.3182 14.5858C65.3182 13.7679 65.0412 13.1148 64.4871 12.6267C63.9462 12.1254 63.2668 11.8748 62.4489 11.8748ZM72.3072 9.91573V19.7109H69.893V9.91573H72.3072ZM69.6754 7.20473C69.6754 7.65327 69.8205 8.00286 70.1107 8.25351C70.4141 8.50417 70.7439 8.62949 71.1001 8.62949C71.4563 8.62949 71.7795 8.50417 72.0698 8.25351C72.3732 8.00286 72.5249 7.65327 72.5249 7.20473C72.5249 6.7562 72.3732 6.40661 72.0698 6.15595C71.7795 5.9053 71.4563 5.77998 71.1001 5.77998C70.7439 5.77998 70.4141 5.9053 70.1107 6.15595C69.8205 6.40661 69.6754 6.7562 69.6754 7.20473ZM82.3974 10.9645L81.0518 12.5476C80.4317 11.9671 79.627 11.6769 78.6376 11.6769C77.4503 11.6769 76.8567 12.0001 76.8567 12.6465C76.8567 13.2797 77.4635 13.6359 78.6772 13.7151C79.1125 13.7415 79.4951 13.781 79.8249 13.8338C80.1679 13.8866 80.5373 13.9855 80.9331 14.1306C81.3288 14.2626 81.6586 14.4407 81.9225 14.6649C82.1863 14.876 82.404 15.1662 82.5755 15.5356C82.7602 15.905 82.8525 16.3403 82.8525 16.8416C82.8525 17.7519 82.4831 18.517 81.7444 19.1371C81.0188 19.7439 79.9898 20.0473 78.6574 20.0473C77.7603 20.0473 76.949 19.9286 76.2234 19.6911C75.4979 19.4537 74.8053 18.992 74.1457 18.306L75.333 16.5844C76.1773 17.4683 77.2986 17.9234 78.697 17.9498C79.1851 17.963 79.6006 17.8772 79.9436 17.6925C80.2866 17.4946 80.4581 17.2242 80.4581 16.8812C80.4581 16.2084 79.8117 15.8324 78.5189 15.7533C78.0044 15.7137 77.5295 15.6411 77.0941 15.5356C76.6588 15.4169 76.23 15.252 75.8079 15.0409C75.3989 14.8166 75.0757 14.5066 74.8383 14.1108C74.6008 13.7151 74.4821 13.2534 74.4821 12.7257C74.4821 12.1848 74.6074 11.7099 74.858 11.3009C75.1219 10.892 75.4583 10.5753 75.8672 10.3511C76.2894 10.1268 76.7313 9.9619 77.1931 9.85637C77.6548 9.73764 78.1231 9.67827 78.598 9.67827C80.1547 9.67827 81.4212 10.107 82.3974 10.9645ZM85.8419 7.46198L88.2561 7.20473V9.9751H90.9473V12.0529H88.2363V16.2678C88.2363 16.7163 88.3485 17.0593 88.5727 17.2968C88.8102 17.5342 89.1202 17.653 89.5028 17.653C89.8853 17.653 90.2745 17.554 90.6703 17.3561L91.3431 19.4141C90.6967 19.678 90.0305 19.8165 89.3445 19.8297C88.2627 19.8692 87.4052 19.5856 86.772 18.9788C86.152 18.3587 85.8419 17.4551 85.8419 16.2678V12.0529H84.0214V9.9751H85.8419V7.46198ZM95.3807 9.91573V19.7109H92.9665V9.91573H95.3807ZM92.7488 7.20473C92.7488 7.65327 92.8939 8.00286 93.1842 8.25351C93.4876 8.50417 93.8174 8.62949 94.1736 8.62949C94.5298 8.62949 94.853 8.50417 95.1432 8.25351C95.4466 8.00286 95.5983 7.65327 95.5983 7.20473C95.5983 6.7562 95.4466 6.40661 95.1432 6.15595C94.853 5.9053 94.5298 5.77998 94.1736 5.77998C93.8174 5.77998 93.4876 5.9053 93.1842 6.15595C92.8939 6.40661 92.7488 6.7562 92.7488 7.20473ZM97.9909 5.87892H100.405V13.8734L103.69 9.95531H106.579V10.0938L102.602 14.5462L107.133 19.5328V19.7109H104.224L100.405 15.2981V19.7109H97.9909V5.87892ZM115.504 11.3009L115.583 9.95531H117.898V19.7109H115.622L115.504 18.2862C115.24 18.8139 114.798 19.2294 114.178 19.5328C113.558 19.8363 112.944 19.9946 112.337 20.0078C110.847 20.021 109.633 19.579 108.696 18.6819C107.773 17.7717 107.311 16.4854 107.311 14.8232C107.311 13.2006 107.786 11.9407 108.736 11.0437C109.699 10.1466 110.919 9.70466 112.397 9.71785C113.056 9.71785 113.67 9.86296 114.237 10.1532C114.804 10.4434 115.226 10.826 115.504 11.3009ZM112.614 11.8748C111.783 11.8748 111.091 12.1386 110.537 12.6663C109.996 13.194 109.725 13.913 109.725 14.8232C109.725 15.7335 109.996 16.4591 110.537 16.9999C111.091 17.5276 111.783 17.7915 112.614 17.7915C113.34 17.7915 113.947 17.587 114.435 17.178C114.936 16.7691 115.24 16.281 115.345 15.7137C115.464 15.1332 115.464 14.5528 115.345 13.9723C115.24 13.3919 114.936 12.8972 114.435 12.4882C113.947 12.0793 113.34 11.8748 112.614 11.8748Z" fill="white"/>
<path d="M8.76918 0.289062H24.8188L22.6766 6.78397H6.62695L8.76918 0.289062Z" fill="white"/>
<path d="M7.81801 3.24805L14.6187 3.24872L12.4765 9.74363L5.67578 9.74295L7.81801 3.24805Z" fill="white"/>
<path d="M3.05629 17.4941H19.106L16.9637 23.989H0.914062L3.05629 17.4941Z" fill="white"/>
<path d="M5.98012 8.65039H19.9216L17.7793 15.1453H3.83789L5.98012 8.65039Z" fill="white"/>
</svg>
