<svg width="162" height="34" viewBox="0 0 162 34" fill="none" xmlns="http://www.w3.org/2000/svg">
<path d="M45.6942 7.25775H49.2237V22.7128H58.8497V25.975H45.6942V7.25775ZM62.1332 14.504C63.381 13.1849 65.0299 12.5253 67.0799 12.5253C69.1298 12.5253 70.7877 13.1849 72.0533 14.504C73.3368 15.8231 73.9785 17.4542 73.9785 19.3972C73.9785 21.3581 73.3546 22.998 72.1068 24.3172C70.859 25.6185 69.1922 26.2691 67.1066 26.2691C65.021 26.2691 63.3542 25.6185 62.1064 24.3172C60.8764 22.998 60.2614 21.3581 60.2614 19.3972C60.2614 17.4542 60.8854 15.8231 62.1332 14.504ZM67.1066 15.4933C65.9836 15.4933 65.1012 15.8766 64.4594 16.6431C63.8355 17.4096 63.5236 18.3277 63.5236 19.3972C63.5236 20.4668 63.8355 21.3848 64.4594 22.1513C65.1012 22.9 65.9836 23.2743 67.1066 23.2743C68.2296 23.2743 69.1031 22.9 69.727 22.1513C70.3687 21.3848 70.6896 20.4668 70.6896 19.3972C70.6896 18.3633 70.3509 17.4542 69.6735 16.6698C69.014 15.8855 68.1583 15.4933 67.1066 15.4933ZM86.5447 13.1938L88.0154 11.3755L90.4219 13.1938L88.7641 15.119C89.7801 16.3311 90.2882 17.6414 90.2882 19.0496C90.2882 21.3491 89.2008 22.998 87.026 23.9963C89.2008 24.7806 90.2882 26.2067 90.2882 28.2745C90.2882 29.4689 89.9227 30.4938 89.1919 31.3495C88.4788 32.223 87.5875 32.8558 86.518 33.248C85.4663 33.6401 84.3254 33.8362 83.0954 33.8362C80.8137 33.8362 79.04 33.2925 77.7744 32.2051C76.5087 31.1356 75.9116 29.656 75.9829 27.7665H79.2183C79.1648 28.64 79.5213 29.3352 80.2878 29.8521C81.0543 30.3869 81.9902 30.6632 83.0954 30.681C84.0937 30.681 84.976 30.4671 85.7426 30.0393C86.5091 29.6293 86.8923 29.041 86.8923 28.2745C86.8923 27.4724 86.5715 26.8395 85.9297 26.3761C85.288 25.9126 84.3611 25.6808 83.1489 25.6808C80.9563 25.6808 79.2004 25.0926 77.8813 23.9161C76.58 22.7217 75.9294 21.0996 75.9294 19.0496C75.9294 16.9461 76.6335 15.3062 78.0418 14.1296C79.4678 12.9531 81.1702 12.3649 83.1489 12.3649C84.5928 12.3649 85.7247 12.6412 86.5447 13.1938ZM83.1489 15.3864C82.008 15.3864 81.0633 15.7072 80.3146 16.349C79.5659 16.9729 79.1915 17.8731 79.1915 19.0496C79.1915 20.1548 79.5748 21.0372 80.3413 21.6968C81.1078 22.3563 82.0437 22.6861 83.1489 22.6861C84.2541 22.6861 85.1721 22.3563 85.903 21.6968C86.6517 21.0372 87.026 20.1548 87.026 19.0496C87.026 17.9444 86.6517 17.062 85.903 16.4025C85.1721 15.7251 84.2541 15.3864 83.1489 15.3864ZM96.4699 12.7392V25.975H93.2077V12.7392H96.4699ZM92.9136 9.076C92.9136 9.68208 93.1097 10.1545 93.5019 10.4932C93.9118 10.8319 94.3575 11.0012 94.8388 11.0012C95.3201 11.0012 95.7568 10.8319 96.149 10.4932C96.559 10.1545 96.764 9.68208 96.764 9.076C96.764 8.46992 96.559 7.99753 96.149 7.65884C95.7568 7.32014 95.3201 7.1508 94.8388 7.1508C94.3575 7.1508 93.9118 7.32014 93.5019 7.65884C93.1097 7.99753 92.9136 8.46992 92.9136 9.076ZM110.104 14.1564L108.286 16.2955C107.448 15.5112 106.361 15.119 105.024 15.119C103.419 15.119 102.617 15.5557 102.617 16.4292C102.617 17.2848 103.437 17.7661 105.077 17.8731C105.666 17.9087 106.182 17.9622 106.628 18.0335C107.092 18.1048 107.591 18.2385 108.126 18.4346C108.66 18.6129 109.106 18.8535 109.462 19.1566C109.819 19.4418 110.113 19.8339 110.345 20.3331C110.594 20.8322 110.719 21.4205 110.719 22.0978C110.719 23.3278 110.22 24.3617 109.222 25.1995C108.241 26.0195 106.851 26.4295 105.051 26.4295C103.838 26.4295 102.742 26.2691 101.762 25.9482C100.781 25.6274 99.8454 25.0035 98.9541 24.0765L100.558 21.7502C101.699 22.9446 103.214 23.5596 105.104 23.5952C105.764 23.613 106.325 23.4972 106.789 23.2476C107.252 22.9802 107.484 22.6148 107.484 22.1513C107.484 21.2422 106.61 20.7342 104.863 20.6272C104.168 20.5737 103.526 20.4757 102.938 20.3331C102.35 20.1726 101.771 19.9498 101.2 19.6646C100.648 19.3616 100.211 18.9426 99.8899 18.4079C99.5691 17.8731 99.4086 17.2492 99.4086 16.5361C99.4086 15.8053 99.578 15.1636 99.9167 14.6109C100.273 14.0583 100.728 13.6305 101.28 13.3275C101.851 13.0244 102.448 12.8016 103.072 12.659C103.696 12.4986 104.329 12.4184 104.97 12.4184C107.074 12.4184 108.785 12.9977 110.104 14.1564ZM114.759 9.4236L118.021 9.076V12.8194H121.657V15.627H117.994V21.3224C117.994 21.9285 118.146 22.392 118.449 22.7128C118.769 23.0337 119.188 23.1941 119.705 23.1941C120.222 23.1941 120.748 23.0604 121.283 22.793L122.192 25.5739C121.319 25.9304 120.418 26.1176 119.491 26.1354C118.03 26.1889 116.871 25.8056 116.015 24.9856C115.178 24.1478 114.759 22.9267 114.759 21.3224V15.627H112.299V12.8194H114.759V9.4236ZM127.648 12.7392V25.975H124.386V12.7392H127.648ZM124.092 9.076C124.092 9.68208 124.288 10.1545 124.68 10.4932C125.09 10.8319 125.535 11.0012 126.017 11.0012C126.498 11.0012 126.935 10.8319 127.327 10.4932C127.737 10.1545 127.942 9.68208 127.942 9.076C127.942 8.46992 127.737 7.99753 127.327 7.65884C126.935 7.32014 126.498 7.1508 126.017 7.1508C125.535 7.1508 125.09 7.32014 124.68 7.65884C124.288 7.99753 124.092 8.46992 124.092 9.076ZM131.175 7.28449H134.437V18.087L138.876 12.7927H142.78V12.9799L137.405 18.9961L143.528 25.7343V25.975H139.598L134.437 20.0122V25.975H131.175V7.28449ZM154.839 14.6109L154.946 12.7927H158.074V25.975H154.999L154.839 24.0498C154.482 24.7628 153.885 25.3243 153.047 25.7343C152.209 26.1443 151.381 26.3582 150.561 26.3761C148.546 26.3939 146.906 25.7967 145.641 24.5846C144.393 23.3546 143.769 21.6165 143.769 19.3705C143.769 17.1779 144.411 15.4755 145.694 14.2633C146.995 13.0512 148.644 12.454 150.641 12.4718C151.532 12.4718 152.361 12.6679 153.127 13.0601C153.894 13.4523 154.464 13.9692 154.839 14.6109ZM150.935 15.3864C149.812 15.3864 148.876 15.7429 148.127 16.4559C147.396 17.169 147.031 18.1405 147.031 19.3705C147.031 20.6005 147.396 21.5809 148.127 22.3117C148.876 23.0248 149.812 23.3813 150.935 23.3813C151.915 23.3813 152.735 23.105 153.395 22.5524C154.072 21.9998 154.482 21.3402 154.625 20.5737C154.785 19.7894 154.785 19.005 154.625 18.2207C154.482 17.4364 154.072 16.7679 153.395 16.2153C152.735 15.6627 151.915 15.3864 150.935 15.3864Z" fill="url(#paint0_linear_3106_31478)"/>
<path d="M10.6142 0H32.3012L29.4066 8.77622H7.71948L10.6142 0Z" fill="url(#paint1_linear_3106_31478)"/>
<path d="M9.32876 3.99872L18.5182 3.99963L15.6235 12.7759L6.43408 12.7749L9.32876 3.99872Z" fill="url(#paint2_linear_3106_31478)"/>
<path d="M2.89468 23.2484H24.5818L21.6871 32.0246H0L2.89468 23.2484Z" fill="url(#paint3_linear_3106_31478)"/>
<path d="M6.84537 11.2985H25.6837L22.789 20.0747H3.95068L6.84537 11.2985Z" fill="url(#paint4_linear_3106_31478)"/>
<defs>
<linearGradient id="paint0_linear_3106_31478" x1="43.4749" y1="19.4875" x2="161.033" y2="19.4875" gradientUnits="userSpaceOnUse">
<stop stop-color="#185CAF"/>
<stop offset="1" stop-color="#104280"/>
</linearGradient>
<linearGradient id="paint1_linear_3106_31478" x1="7.71948" y1="4.38811" x2="32.3012" y2="4.38811" gradientUnits="userSpaceOnUse">
<stop stop-color="#185CAF"/>
<stop offset="1" stop-color="#104280"/>
</linearGradient>
<linearGradient id="paint2_linear_3106_31478" x1="6.43408" y1="8.38729" x2="18.5182" y2="8.38729" gradientUnits="userSpaceOnUse">
<stop stop-color="#185CAF"/>
<stop offset="1" stop-color="#104280"/>
</linearGradient>
<linearGradient id="paint3_linear_3106_31478" x1="0" y1="27.6365" x2="24.5818" y2="27.6365" gradientUnits="userSpaceOnUse">
<stop stop-color="#185CAF"/>
<stop offset="1" stop-color="#104280"/>
</linearGradient>
<linearGradient id="paint4_linear_3106_31478" x1="3.95068" y1="15.6866" x2="25.6837" y2="15.6866" gradientUnits="userSpaceOnUse">
<stop stop-color="#185CAF"/>
<stop offset="1" stop-color="#104280"/>
</linearGradient>
</defs>
</svg>
