<svg width="26" height="27" viewBox="0 0 26 27" fill="none" xmlns="http://www.w3.org/2000/svg">
<path d="M10.5622 8.89567C10.5622 8.44694 10.1984 8.08317 9.74967 8.08317H8.46697H6.82302C7.22115 5.0268 9.83477 2.6665 12.9997 2.6665C16.1646 2.6665 18.7782 5.0268 19.1763 8.08317H17.5324L14.6247 8.08317C14.1759 8.08317 13.8122 8.44694 13.8122 8.89567C13.8122 9.3444 14.1759 9.70817 14.6247 9.70817L17.6038 9.70817H19.2288V11.3332H17.6038H14.6247C14.1759 11.3332 13.8122 11.6969 13.8122 12.1457C13.8122 12.5944 14.1759 12.9582 14.6247 12.9582H17.5324H19.1763C18.7782 16.0145 16.1646 18.3748 12.9997 18.3748C9.83477 18.3748 7.22115 16.0145 6.82302 12.9582H8.46697H9.74967C10.1984 12.9582 10.5622 12.5944 10.5622 12.1457C10.5622 11.6969 10.1984 11.3332 9.74967 11.3332H8.39551H6.77051V9.70817H8.39551H9.74967C10.1984 9.70817 10.5622 9.3444 10.5622 8.89567Z" fill="white"/>
<path fill-rule="evenodd" clip-rule="evenodd" d="M4.33301 10.2498C4.78174 10.2498 5.14551 10.6136 5.14551 11.0623V12.1457C5.14551 16.4834 8.66194 19.9998 12.9997 19.9998C17.3374 19.9998 20.8538 16.4834 20.8538 12.1457V11.0623C20.8538 10.6136 21.2176 10.2498 21.6663 10.2498C22.1151 10.2498 22.4788 10.6136 22.4788 11.0623V12.1457C22.4788 17.1072 18.667 21.1784 13.8122 21.5905V24.0623C13.8122 24.5111 13.4484 24.8748 12.9997 24.8748C12.5509 24.8748 12.1872 24.5111 12.1872 24.0623V21.5905C7.33232 21.1784 3.52051 17.1072 3.52051 12.1457V11.0623C3.52051 10.6136 3.88428 10.2498 4.33301 10.2498Z" fill="white"/>
</svg>
