<svg width="20" height="20" viewBox="0 0 20 20" fill="none" xmlns="http://www.w3.org/2000/svg">
<path fill-rule="evenodd" clip-rule="evenodd" d="M12.988 1.66663C13.43 1.66672 13.8539 1.84238 14.1663 2.15496L17.0113 4.99996C17.3239 5.31245 17.4996 5.7363 17.4997 6.17829V13.3333C17.4997 13.7753 17.3241 14.1992 17.0115 14.5118C16.699 14.8244 16.275 15 15.833 15H14.1663V16.6666C14.1663 17.1087 13.9907 17.5326 13.6782 17.8451C13.3656 18.1577 12.9417 18.3333 12.4997 18.3333H4.99967C4.55765 18.3333 4.13372 18.1577 3.82116 17.8451C3.5086 17.5326 3.33301 17.1087 3.33301 16.6666V6.66663C3.33301 6.2246 3.5086 5.80068 3.82116 5.48811C4.13372 5.17555 4.55765 4.99996 4.99967 4.99996H6.66634V3.33329C6.66634 2.89127 6.84194 2.46734 7.1545 2.15478C7.46706 1.84222 7.89098 1.66663 8.33301 1.66663H12.988ZM6.66634 6.66663H4.99967V16.6666H12.4997V15H8.33301C7.89098 15 7.46706 14.8244 7.1545 14.5118C6.84194 14.1992 6.66634 13.7753 6.66634 13.3333V6.66663ZM11.6663 3.33329H8.33301V13.3333H15.833V7.49996H12.9163C12.6056 7.49994 12.306 7.38419 12.076 7.17528C11.846 6.96636 11.702 6.67926 11.6722 6.36996L11.6663 6.24996V3.33329ZM13.333 3.67829V5.83329H15.488L13.333 3.67829Z" fill="black"/>
</svg>
