<svg width="27" height="27" viewBox="0 0 27 27" fill="none" xmlns="http://www.w3.org/2000/svg">
<path d="M18.3218 13.5002C18.3218 14.3878 19.0414 15.1074 19.929 15.1074C20.8166 15.1074 21.5361 14.3878 21.5361 13.5002C21.5361 12.6126 20.8166 11.8931 19.929 11.8931C19.0414 11.8931 18.3218 12.6126 18.3218 13.5002Z" fill="#323232"/>
<path d="M11.8931 13.5002C11.8931 14.3878 12.6127 15.1074 13.5003 15.1074C14.3879 15.1074 15.1074 14.3878 15.1074 13.5002C15.1074 12.6126 14.3879 11.8931 13.5003 11.8931C12.6127 11.8931 11.8931 12.6126 11.8931 13.5002Z" fill="#323232"/>
<path d="M5.46443 13.5002C5.46443 14.3878 6.18397 15.1074 7.07157 15.1074C7.95917 15.1074 8.67871 14.3878 8.67871 13.5002C8.67871 12.6126 7.95917 11.8931 7.07157 11.8931C6.18397 11.8931 5.46443 12.6126 5.46443 13.5002Z" fill="#323232"/>
</svg>
