<svg width="24" height="25" viewBox="0 0 24 25" fill="none" xmlns="http://www.w3.org/2000/svg">
<path d="M8.10692 17.9174L15.4868 10.8512C15.9348 10.4221 16.1589 10.2076 16.2759 9.97485C16.4856 9.5579 16.4856 9.0722 16.2759 8.65525C16.1589 8.42246 15.9348 8.20794 15.4868 7.77892C15.0387 7.3499 14.8147 7.13538 14.5715 7.02328C14.1361 6.82249 13.6288 6.82248 13.1934 7.02328C12.9502 7.13538 12.7262 7.3499 12.2781 7.77892L4.95178 14.7939C3.85303 15.8459 3.30366 16.372 3.11183 16.9836C2.96272 17.4591 2.96272 17.966 3.11183 18.4414C3.30366 19.0531 3.85303 19.5791 4.95178 20.6312C6.05053 21.6832 6.5999 22.2092 7.2387 22.3929C7.73526 22.5357 8.26468 22.5357 8.76124 22.3929C9.40004 22.2092 9.94941 21.6832 11.0482 20.6312L18.4815 13.5138C19.5258 12.5138 20.048 12.0138 20.3617 11.4937C21.2128 10.0822 21.2128 8.34311 20.3617 6.93161C20.048 6.41147 19.5258 5.91147 18.4815 4.91148C17.4371 3.9115 16.9149 3.4115 16.3717 3.1112C14.8975 2.29627 13.0813 2.29627 11.6071 3.1112C11.0639 3.4115 10.5417 3.9115 9.49733 4.91148L3.5079 10.6464" stroke="#8688A1" stroke-width="1.5" stroke-linecap="round"/>
</svg>
