<svg width="20" height="20" viewBox="0 0 20 20" fill="none" xmlns="http://www.w3.org/2000/svg">
<path d="M1.66634 13.3333H18.333V15H1.66634V13.3333ZM2.62467 9.95833L3.33301 8.725L4.04134 9.95833L5.12467 9.33333L4.41634 8.1H5.83301V6.85H4.41634L5.12467 5.625L4.04134 5L3.33301 6.225L2.62467 5L1.54134 5.625L2.24967 6.85H0.833008V8.1H2.24967L1.54134 9.33333L2.62467 9.95833ZM8.20801 9.33333L9.29134 9.95833L9.99967 8.725L10.708 9.95833L11.7913 9.33333L11.083 8.1H12.4997V6.85H11.083L11.7913 5.625L10.708 5L9.99967 6.225L9.29134 5L8.20801 5.625L8.91634 6.85H7.49967V8.1H8.91634L8.20801 9.33333ZM19.1663 6.85H17.7497L18.458 5.625L17.3747 5L16.6663 6.225L15.958 5L14.8747 5.625L15.583 6.85H14.1663V8.1H15.583L14.8747 9.33333L15.958 9.95833L16.6663 8.725L17.3747 9.95833L18.458 9.33333L17.7497 8.1H19.1663V6.85Z" fill="black"/>
</svg>
