<svg width="14" height="14" viewBox="0 0 14 14" fill="none" xmlns="http://www.w3.org/2000/svg">
<path d="M5.33301 3.33331V5.33331H3.33301L3.33301 3.33331L5.33301 3.33331ZM6.33301 2.33331L2.33301 2.33331L2.33301 6.33331H6.33301V2.33331ZM5.33301 8.66665V10.6666H3.33301V8.66665H5.33301ZM6.33301 7.66665H2.33301L2.33301 11.6666H6.33301V7.66665ZM10.6663 3.33331V5.33331H8.66634V3.33331H10.6663ZM11.6663 2.33331L7.66634 2.33331V6.33331H11.6663V2.33331ZM7.66634 7.66665H8.66634V8.66665H7.66634V7.66665ZM8.66634 8.66665H9.66634V9.66665H8.66634V8.66665ZM9.66634 7.66665H10.6663V8.66665H9.66634V7.66665ZM7.66634 9.66665H8.66634V10.6666H7.66634V9.66665ZM8.66634 10.6666H9.66634V11.6666H8.66634V10.6666ZM9.66634 9.66665H10.6663V10.6666H9.66634V9.66665ZM10.6663 8.66665H11.6663V9.66665H10.6663V8.66665ZM10.6663 10.6666H11.6663V11.6666H10.6663V10.6666ZM13.6663 3.66665H12.333V1.66665H10.333V0.333313L13.6663 0.333313V3.66665ZM13.6663 13.6666V10.3333H12.333V12.3333H10.333V13.6666H13.6663ZM0.333008 13.6666H3.66634V12.3333H1.66634V10.3333H0.333008L0.333008 13.6666ZM0.333008 0.333313L0.333008 3.66665H1.66634L1.66634 1.66665L3.66634 1.66665V0.333313L0.333008 0.333313Z" fill="black"/>
</svg>
