<svg width="24" height="24" viewBox="0 0 24 24" fill="none" xmlns="http://www.w3.org/2000/svg">
<path d="M13.25 23.25C12.8958 23.25 12.5992 23.13 12.36 22.89C12.1208 22.65 12.0008 22.3533 12 22C11.9992 21.6467 12.1192 21.35 12.36 21.11C12.6008 20.87 12.8975 20.75 13.25 20.75H20.75V3.25H13.25C12.8958 3.25 12.5992 3.13 12.36 2.89C12.1208 2.65 12.0008 2.35333 12 2C11.9992 1.64667 12.1192 1.35 12.36 1.11C12.6008 0.87 12.8975 0.75 13.25 0.75H20.75C21.4375 0.75 22.0263 0.995 22.5163 1.485C23.0063 1.975 23.2508 2.56333 23.25 3.25V20.75C23.25 21.4375 23.0054 22.0263 22.5163 22.5163C22.0271 23.0063 21.4383 23.2508 20.75 23.25H13.25ZM10.9688 13.25H2C1.64584 13.25 1.34917 13.13 1.11 12.89C0.870838 12.65 0.750838 12.3533 0.750004 12C0.749171 11.6467 0.869171 11.35 1.11 11.11C1.35084 10.87 1.6475 10.75 2 10.75H10.9688L8.625 8.40625C8.39584 8.17708 8.28125 7.89583 8.28125 7.5625C8.28125 7.22917 8.39584 6.9375 8.625 6.6875C8.85417 6.4375 9.14584 6.30708 9.5 6.29625C9.85417 6.28542 10.1563 6.40542 10.4063 6.65625L14.875 11.125C15.125 11.375 15.25 11.6667 15.25 12C15.25 12.3333 15.125 12.625 14.875 12.875L10.4063 17.3438C10.1563 17.5938 9.85959 17.7137 9.51625 17.7038C9.17292 17.6938 8.87584 17.5633 8.625 17.3125C8.39584 17.0625 8.28667 16.7658 8.2975 16.4225C8.30834 16.0792 8.42792 15.7925 8.65625 15.5625L10.9688 13.25Z" fill="white"/>
</svg>
