<svg width="28" height="28" viewBox="0 0 28 28" fill="none" xmlns="http://www.w3.org/2000/svg">
<circle cx="13.9994" cy="13.9999" r="12.5995" fill="#00A8FF" stroke="white" stroke-width="2.79988"/>
<g clip-path="url(#clip0_3383_5413)">
<path d="M18.0228 17.1277V12.2728C18.0228 12.203 18.0042 12.1344 17.969 12.0741C17.9337 12.0137 17.883 11.9639 17.8221 11.9297L13.4911 9.49344C13.4321 9.46029 13.3657 9.44287 13.298 9.44287C13.2304 9.44287 13.1639 9.46029 13.105 9.49344L8.77394 11.9297C8.71305 11.9639 8.66237 12.0137 8.6271 12.0741C8.59183 12.1344 8.57324 12.203 8.57324 12.2728V17.1277C8.57324 17.1975 8.59183 17.2661 8.6271 17.3264C8.66237 17.3868 8.71305 17.4366 8.77394 17.4708L13.105 19.9071C13.1639 19.9402 13.2304 19.9576 13.298 19.9576C13.3657 19.9576 13.4321 19.9402 13.4911 19.9071L17.8221 17.4708C17.883 17.4366 17.9337 17.3868 17.969 17.3264C18.0042 17.2661 18.0228 17.1975 18.0228 17.1277Z" stroke="white" stroke-width="1.25995" stroke-linecap="round" stroke-linejoin="round"/>
<path d="M15.7106 15.9063V13.347L10.9355 10.7134" stroke="white" stroke-width="1.25995" stroke-linecap="round" stroke-linejoin="round"/>
<path d="M17.9677 12.0728L13.3439 14.6996L8.62695 12.0723" stroke="white" stroke-width="1.25995" stroke-linecap="round" stroke-linejoin="round"/>
<path d="M13.345 14.7012L13.2988 19.9585" stroke="white" stroke-width="1.25995" stroke-linecap="round" stroke-linejoin="round"/>
</g>
<defs>
<clipPath id="clip0_3383_5413">
<rect width="12.5995" height="12.5995" fill="white" transform="translate(6.99805 8.40039)"/>
</clipPath>
</defs>
</svg>
