<svg width="56" height="56" viewBox="0 0 56 56" fill="none" xmlns="http://www.w3.org/2000/svg">
<path d="M27.9884 52C41.1426 52 52 41.1373 52 28C52 14.8627 41.1194 4 27.9652 4C14.8342 4 4 14.8627 4 28C4 41.1373 14.8574 52 27.9884 52Z" fill="#44BD32"/>
<path d="M25.6475 38.5C26.4738 38.5 27.1852 38.1496 27.6672 37.5267L37.9262 23.9199C38.2246 23.5111 38.5 23.0439 38.5 22.5962C38.5 21.6424 37.4902 21 36.4115 21C35.7229 21 35.1033 21.3115 34.6213 21.9733L25.5557 34.3148L21.2869 29.7013C20.7361 29.0979 20.1852 28.8838 19.4967 28.8838C18.3721 28.8838 17.5 29.6429 17.5 30.6162C17.5 31.0834 17.7066 31.5117 18.0967 31.9205L23.5131 37.5267C24.1328 38.208 24.7984 38.5 25.6475 38.5Z" fill="white"/>
</svg>
