<svg width="35" height="35" viewBox="0 0 35 35" fill="none" xmlns="http://www.w3.org/2000/svg">
<path d="M4.52148 14.5989C4.52148 9.12881 4.52148 6.39379 6.22081 4.69445C7.92016 2.99512 10.6552 2.99512 16.1253 2.99512H19.0262C24.4962 2.99512 27.2314 2.99512 28.9306 4.69445C30.63 6.39379 30.63 9.12881 30.63 14.5989V20.4008C30.63 25.8708 30.63 28.6059 28.9306 30.3052C27.2314 32.0045 24.4962 32.0045 19.0262 32.0045H16.1253C10.6552 32.0045 7.92016 32.0045 6.22081 30.3052C4.52148 28.6059 4.52148 25.8708 4.52148 20.4008V14.5989Z" stroke="#1C274C" stroke-width="2"/>
<path d="M11.7734 17.5H23.3772" stroke="#1C274C" stroke-width="2" stroke-linecap="round"/>
<path d="M11.7734 11.698H23.3772" stroke="#1C274C" stroke-width="2" stroke-linecap="round"/>
<path d="M11.7734 23.3018H19.0258" stroke="#1C274C" stroke-width="2" stroke-linecap="round"/>
</svg>
