<svg width="21" height="21" viewBox="0 0 21 21" fill="none" xmlns="http://www.w3.org/2000/svg">
<g clip-path="url(#clip0_3106_35613)">
<path d="M10.0215 19.875C7.83398 19.875 5.89822 19.2111 4.21419 17.8833C2.53016 16.5556 1.43641 14.8583 0.932943 12.7917C0.863498 12.5312 0.915581 12.2927 1.08919 12.076C1.2628 11.8594 1.49718 11.7333 1.79232 11.6979C2.0701 11.6632 2.32183 11.7153 2.54753 11.8542C2.77322 11.9931 2.92947 12.2014 3.01628 12.4792C3.43294 14.0417 4.29232 15.3177 5.5944 16.3073C6.89648 17.2969 8.37218 17.7917 10.0215 17.7917C12.0527 17.7917 13.776 17.0844 15.1913 15.6698C16.6066 14.2552 17.3138 12.5319 17.3131 10.5C17.3125 8.46805 16.6052 6.74514 15.1913 5.33125C13.7774 3.91736 12.0541 3.20972 10.0215 3.20833C8.82357 3.20833 7.70377 3.48611 6.66211 4.04167C5.62044 4.59722 4.74371 5.36111 4.0319 6.33333H5.85482C6.14996 6.33333 6.39753 6.43333 6.59753 6.63333C6.79753 6.83333 6.89718 7.08055 6.89648 7.375C6.89579 7.66944 6.79579 7.91701 6.59648 8.11771C6.39718 8.3184 6.14996 8.41805 5.85482 8.41666H1.68815C1.39301 8.41666 1.14579 8.31666 0.946484 8.11666C0.747179 7.91666 0.647179 7.66944 0.646484 7.375V3.20833C0.646484 2.91319 0.746484 2.66597 0.946484 2.46667C1.14648 2.26736 1.39371 2.16736 1.68815 2.16667C1.9826 2.16597 2.23016 2.26597 2.43086 2.46667C2.63155 2.66736 2.73121 2.91458 2.72982 3.20833V4.61458C3.61523 3.50347 4.69614 2.6441 5.97253 2.03646C7.24891 1.42882 8.59857 1.125 10.0215 1.125C11.3236 1.125 12.5434 1.37257 13.6809 1.86771C14.8184 2.36285 15.8079 3.0309 16.6496 3.87187C17.4913 4.71285 18.1597 5.70243 18.6548 6.84062C19.15 7.97882 19.3972 9.19861 19.3965 10.5C19.3958 11.8014 19.1486 13.0212 18.6548 14.1594C18.1611 15.2976 17.4927 16.2871 16.6496 17.1281C15.8066 17.9691 14.817 18.6375 13.6809 19.1333C12.5447 19.6292 11.325 19.8764 10.0215 19.875ZM11.0631 10.0833L13.6673 12.6875C13.8583 12.8785 13.9538 13.1215 13.9538 13.4167C13.9538 13.7118 13.8583 13.9549 13.6673 14.1458C13.4763 14.3368 13.2333 14.4323 12.9381 14.4323C12.643 14.4323 12.4 14.3368 12.209 14.1458L9.29232 11.2292C9.18815 11.125 9.11002 11.008 9.05794 10.8781C9.00586 10.7483 8.97982 10.6135 8.97982 10.474V6.33333C8.97982 6.03819 9.07982 5.79097 9.27982 5.59167C9.47982 5.39236 9.72704 5.29236 10.0215 5.29167C10.3159 5.29097 10.5635 5.39097 10.7642 5.59167C10.9649 5.79236 11.0645 6.03958 11.0631 6.33333V10.0833Z" fill="#FAA300"/>
</g>
<defs>
<clipPath id="clip0_3106_35613">
<rect width="20" height="20" fill="white" transform="translate(0.0214844 0.5)"/>
</clipPath>
</defs>
</svg>
