<svg width="24" height="25" viewBox="0 0 24 25" fill="none" xmlns="http://www.w3.org/2000/svg">
<path d="M5.94089 13.735L12.0345 19.8286C12.2832 20.0773 12.4026 20.3675 12.3926 20.6991C12.3827 21.0307 12.2529 21.3209 12.0034 21.5696C11.7546 21.7976 11.4645 21.917 11.1329 21.9278C10.8012 21.9385 10.5111 21.8192 10.2623 21.5696L2.05469 13.362C1.93033 13.2376 1.84203 13.1029 1.7898 12.9578C1.73757 12.8127 1.71229 12.6573 1.71394 12.4914C1.7156 12.3256 1.74172 12.1702 1.79229 12.0251C1.84286 11.88 1.93074 11.7453 2.05593 11.6209L10.2636 3.41327C10.4916 3.18528 10.7768 3.07129 11.1192 3.07129C11.4616 3.07129 11.7567 3.18528 12.0046 3.41327C12.2533 3.66199 12.3777 3.95755 12.3777 4.29995C12.3777 4.64235 12.2533 4.93749 12.0046 5.18538L5.94089 11.2479H19.8379C20.1903 11.2479 20.4859 11.3672 20.7246 11.606C20.9634 11.8448 21.0824 12.1399 21.0815 12.4914C21.0807 12.843 20.9613 13.1385 20.7234 13.3781C20.4854 13.6177 20.1903 13.7367 19.8379 13.735H5.94089Z" fill="#323232"/>
</svg>
