<svg width="17" height="16" viewBox="0 0 17 16" fill="none" xmlns="http://www.w3.org/2000/svg">
<g clip-path="url(#clip0_3106_35454)">
<path fill-rule="evenodd" clip-rule="evenodd" d="M5.52148 3.33334C5.52148 2.68901 6.0438 2.16667 6.68815 2.16667H14.0215C14.6658 2.16667 15.1882 2.68901 15.1882 3.33334V10.6667C15.1882 11.311 14.6658 11.8333 14.0215 11.8333H6.68815C6.04381 11.8333 5.52148 11.311 5.52148 10.6667V3.33334ZM6.68815 3.16667C6.5961 3.16667 6.52148 3.24129 6.52148 3.33334V10.6667C6.52148 10.7587 6.59609 10.8333 6.68815 10.8333H14.0215C14.1135 10.8333 14.1882 10.7587 14.1882 10.6667V3.33334C14.1882 3.24129 14.1135 3.16667 14.0215 3.16667H6.68815Z" fill="black"/>
<path fill-rule="evenodd" clip-rule="evenodd" d="M3.34893 6.29927C3.44129 6.21401 3.56237 6.16667 3.68807 6.16667H6.0214C6.29754 6.16667 6.5214 6.39053 6.5214 6.66667V11.3333C6.5214 11.6095 6.29754 11.8333 6.0214 11.8333H1.35474C1.07859 11.8333 0.854736 11.6095 0.854736 11.3333V8.8205C0.854736 8.68096 0.913055 8.54776 1.0156 8.4531L3.34893 6.29927ZM3.88356 7.16667L1.85474 9.03942V10.8333H5.5214V7.16667H3.88356Z" fill="black"/>
<path fill-rule="evenodd" clip-rule="evenodd" d="M3.35474 11.5C3.63088 11.5 3.85474 11.7239 3.85474 12C3.85474 12.4602 4.22785 12.8333 4.68807 12.8333C5.14829 12.8333 5.5214 12.4602 5.5214 12C5.5214 11.7239 5.74526 11.5 6.0214 11.5C6.29755 11.5 6.5214 11.7239 6.5214 12C6.5214 13.0125 5.70058 13.8333 4.68807 13.8333C3.67556 13.8333 2.85474 13.0125 2.85474 12C2.85474 11.7239 3.07859 11.5 3.35474 11.5Z" fill="black"/>
<path fill-rule="evenodd" clip-rule="evenodd" d="M10.6882 11.5C10.9644 11.5 11.1882 11.7239 11.1882 12C11.1882 12.4602 11.5613 12.8333 12.0216 12.8333C12.4818 12.8333 12.8549 12.4602 12.8549 12C12.8549 11.7239 13.0788 11.5 13.3549 11.5C13.631 11.5 13.8549 11.7239 13.8549 12C13.8549 13.0125 13.0341 13.8333 12.0216 13.8333C11.0091 13.8333 10.1882 13.0125 10.1882 12C10.1882 11.7239 10.4121 11.5 10.6882 11.5Z" fill="black"/>
</g>
<defs>
<clipPath id="clip0_3106_35454">
<rect width="16" height="16" fill="white" transform="translate(0.0214844)"/>
</clipPath>
</defs>
</svg>
