<svg width="20" height="20" viewBox="0 0 20 20" fill="none" xmlns="http://www.w3.org/2000/svg">
<path d="M10.7247 12.5583L8.60801 10.4666L8.63301 10.4416C10.083 8.82496 11.1163 6.96663 11.7247 4.99996H14.1663V3.33329H8.33301V1.66663H6.66634V3.33329H0.833008V4.99163H10.1413C9.58301 6.59996 8.69968 8.12496 7.49968 9.45829C6.72468 8.59996 6.08301 7.65829 5.57468 6.66663H3.90801C4.51634 8.02496 5.34968 9.30829 6.39134 10.4666L2.14967 14.65L3.33301 15.8333L7.49968 11.6666L10.0913 14.2583L10.7247 12.5583ZM15.4163 8.33329H13.7497L9.99968 18.3333H11.6663L12.5997 15.8333H16.558L17.4997 18.3333H19.1663L15.4163 8.33329ZM13.233 14.1666L14.583 10.5583L15.933 14.1666H13.233Z" fill="black"/>
</svg>
