<svg width="176" height="102" viewBox="0 0 176 102" fill="none" xmlns="http://www.w3.org/2000/svg">
<g clip-path="url(#clip0_3106_31975)">
<g opacity="0.15">
<path d="M67.2121 77.1016C67.2098 77.1016 67.2051 77.1016 67.2051 77.1016H62.2653C62.2653 77.1016 62.2629 77.1016 62.2606 77.1016C60.2381 77.1016 58.5977 81.9272 58.5977 87.8597C58.5977 93.7922 60.2381 98.6202 62.2606 98.6202C62.2629 98.6202 62.2653 98.6202 62.2653 98.6202H67.2075C67.2075 98.6202 67.2121 98.6202 67.2144 98.6202C69.237 98.6202 70.8774 93.7922 70.8774 87.8597C70.8774 81.9272 69.2347 77.1016 67.2121 77.1016Z" fill="#1656A5"/>
<path d="M67.2121 99.1531H62.2653C59.5367 99.1531 58.0664 93.3348 58.0664 87.8613C58.0664 82.3902 59.5367 76.5742 62.2606 76.5742H67.2121C69.936 76.5742 71.4064 82.3902 71.4064 87.8636C71.4064 93.3371 69.936 99.1531 67.2121 99.1531ZM62.2653 77.6344C60.781 77.6344 59.1266 82.0081 59.1266 87.8636C59.1266 93.7192 60.781 98.0952 62.2606 98.0952H67.2051C68.6918 98.0952 70.3462 93.7216 70.3462 87.866C70.3462 82.0104 68.6918 77.6367 67.2121 77.6367H62.2653V77.6344Z" fill="white"/>
<path d="M105.696 93.1282V21.0156L6.55859 33.7777V88.7243L105.696 93.1282Z" fill="#1656A5"/>
<path d="M105.698 93.6612C105.691 93.6612 105.681 93.6612 105.674 93.6612L6.53689 89.255C6.25261 89.2433 6.03125 89.008 6.03125 88.726V33.7818C6.03125 33.5161 6.22931 33.2901 6.49261 33.2551L105.63 20.4931C105.781 20.4721 105.933 20.521 106.047 20.6212C106.161 20.7214 106.226 20.8659 106.226 21.0197V93.1323C106.226 93.2767 106.168 93.4142 106.063 93.5144C105.965 93.6076 105.835 93.6612 105.698 93.6612ZM7.09145 88.2181L105.169 92.5777V21.6209L7.09145 34.2454V88.2181Z" fill="white"/>
<path d="M92.9102 74.584L96.0046 77.478L95.1634 97.0161C95.1144 98.1392 96.0046 99.0736 97.1207 99.0736H114.597V74.6422L92.9102 74.584Z" fill="#1656A5"/>
<path d="M114.599 99.6041H97.1232C96.4404 99.6041 95.8043 99.3315 95.329 98.8375C94.8513 98.3388 94.6043 97.6841 94.6346 96.9944L95.4665 77.701L92.5491 74.9747C92.3907 74.8256 92.3371 74.5949 92.4186 74.3922C92.4979 74.1895 92.6936 74.0566 92.9103 74.0566C92.9103 74.0566 92.9103 74.0566 92.9126 74.0566L114.601 74.1149C114.893 74.1149 115.13 74.3526 115.13 74.6438V99.0752C115.128 99.3664 114.89 99.6041 114.599 99.6041ZM94.2571 75.1192L96.3682 77.0905C96.4824 77.1953 96.543 77.3468 96.536 77.5006L95.6948 97.0386C95.6785 97.4371 95.8206 97.8169 96.0956 98.1035C96.3682 98.3878 96.7317 98.5439 97.1232 98.5439H114.068V75.1728L94.2571 75.1192Z" fill="white"/>
<path d="M147.241 0.685547H89.4375V75.2238H147.241V0.685547Z" fill="#1656A5"/>
<path d="M147.24 75.7563H89.4371C89.1435 75.7563 88.9082 75.5186 88.9082 75.2274V0.689098C88.9082 0.395503 89.1459 0.160156 89.4371 0.160156H147.24C147.534 0.160156 147.769 0.397833 147.769 0.689098V75.2274C147.772 75.5186 147.534 75.7563 147.24 75.7563ZM89.9684 74.6961H146.712V1.21804H89.9684V74.6961Z" fill="white"/>
<path d="M147.24 75.7563H137.999C137.705 75.7563 137.47 75.5186 137.47 75.2274C137.47 74.9361 137.708 74.6984 137.999 74.6984H146.709V1.22037H89.968V75.2274C89.968 75.521 89.7304 75.7563 89.4391 75.7563C89.1478 75.7563 88.9102 75.5186 88.9102 75.2274V0.689098C88.9102 0.395503 89.1478 0.160156 89.4391 0.160156H147.242C147.536 0.160156 147.771 0.397833 147.771 0.689098V75.2274C147.771 75.5186 147.534 75.7563 147.24 75.7563Z" fill="white"/>
<path d="M110.704 81.6465C110.702 81.6465 110.697 81.6465 110.697 81.6465H104.988C104.988 81.6465 104.984 81.6465 104.982 81.6465C102.644 81.6465 100.75 87.2178 100.75 94.0707C100.75 100.924 102.644 106.5 104.982 106.5C104.984 106.5 104.986 106.5 104.986 106.5H110.695C110.695 106.5 110.7 106.5 110.702 106.5C113.039 106.5 114.933 100.926 114.933 94.073C114.936 87.2201 113.041 81.6465 110.704 81.6465Z" fill="white"/>
<path d="M104.983 106.3C107.32 106.3 109.215 100.745 109.215 93.8923C109.215 87.0396 107.32 81.4844 104.983 81.4844C102.646 81.4844 100.752 87.0396 100.752 93.8923C100.752 100.745 102.646 106.3 104.983 106.3Z" fill="#1656A5"/>
<path d="M104.983 106.831C101.889 106.831 100.221 100.165 100.221 93.8923C100.221 87.6196 101.889 80.9531 104.983 80.9531C108.078 80.9531 109.746 87.6196 109.746 93.8923C109.744 100.163 108.076 106.831 104.983 106.831ZM104.983 82.0133C103.231 82.0133 101.281 86.8926 101.281 93.8923C101.281 100.892 103.234 105.771 104.983 105.771C106.736 105.771 108.686 100.892 108.686 93.8923C108.686 86.8926 106.733 82.0133 104.983 82.0133Z" fill="white"/>
<path d="M92.7869 23.084L92.6191 74.8779L94.5695 76.5207C95.2848 77.1242 95.6809 78.0283 95.6413 78.9673L94.8374 97.6246C94.8025 98.4192 95.4339 99.0809 96.2215 99.0832C96.818 99.0832 97.3749 99.0809 97.3749 99.0599C97.3749 87.4093 99.5629 77.8558 102.394 77.8558C105.225 77.8558 107.52 87.2998 107.52 98.9504C107.52 98.9924 114.296 99.0716 114.296 99.0716V23.303L92.7869 23.084Z" fill="#1656A5"/>
<path d="M96.5753 99.6145C96.4681 99.6145 96.3516 99.6145 96.2212 99.6145C95.6969 99.6145 95.2052 99.4048 94.8417 99.0227C94.4759 98.6382 94.2848 98.1349 94.3081 97.6036L95.112 78.9463C95.1446 78.1774 94.8138 77.4224 94.2289 76.9261L92.2786 75.2834C92.1597 75.1832 92.0898 75.034 92.0898 74.8756L92.2576 23.0816C92.2576 22.9395 92.3159 22.8044 92.4161 22.7065C92.5163 22.6063 92.6421 22.5574 92.7935 22.5527L114.305 22.7718C114.596 22.7741 114.83 23.0118 114.83 23.3007V99.0716C114.83 99.2137 114.774 99.3489 114.671 99.4491C114.571 99.5493 114.433 99.6075 114.291 99.6029C114.291 99.6029 112.597 99.5819 110.901 99.5586C106.991 99.5003 106.991 99.5004 106.991 98.9528C106.991 86.8338 104.568 78.3871 102.394 78.3871C100.271 78.3871 97.9035 86.8781 97.9035 99.0599C97.9035 99.1998 97.8476 99.3372 97.7474 99.4351C97.5866 99.5982 97.5726 99.6145 96.5753 99.6145ZM93.1477 74.631L94.9093 76.1152C95.7458 76.8189 96.2165 77.8955 96.1699 78.9906L95.366 97.6479C95.3567 97.8879 95.4406 98.1162 95.606 98.2887C95.7691 98.4588 95.9881 98.552 96.2212 98.552C96.4891 98.552 96.6942 98.552 96.8456 98.5496C96.9039 87.9173 98.8076 77.3246 102.394 77.3246C106.008 77.3246 107.986 88.1107 108.049 98.4448C109.104 98.4728 111.726 98.51 113.767 98.5357V23.825L93.3132 23.6153L93.1477 74.631Z" fill="white"/>
<path d="M114.299 99.6049C114.297 99.6049 114.294 99.6049 114.292 99.6049C114.292 99.6049 112.598 99.584 110.902 99.5607C106.992 99.5024 106.992 99.5024 106.992 98.9548C106.992 89.5994 105.498 81.3787 103.359 78.9624C103.166 78.7434 103.187 78.4078 103.406 78.2144C103.625 78.021 103.96 78.042 104.154 78.261C106.444 80.8498 107.998 88.926 108.052 98.4515C109.203 98.4818 112.213 98.5238 114.306 98.5494C114.599 98.554 114.832 98.7941 114.83 99.0853C114.825 99.3719 114.588 99.6049 114.299 99.6049Z" fill="white"/>
<path d="M157.372 81.0389C157.37 81.0389 157.365 81.0389 157.365 81.0389H151.656C151.656 81.0389 151.652 81.0389 151.649 81.0389C149.312 81.0389 147.418 86.6103 147.418 93.4632C147.418 100.316 149.312 105.892 151.649 105.892H151.654H157.363C157.363 105.892 157.368 105.892 157.37 105.892C159.707 105.892 161.601 100.318 161.601 93.4655C161.601 86.6126 159.709 81.0389 157.372 81.0389Z" fill="white"/>
<path d="M151.618 105.891C153.974 105.891 155.884 100.291 155.884 93.383C155.884 86.475 153.974 80.8749 151.618 80.8749C149.262 80.8749 147.352 86.475 147.352 93.383C147.352 100.291 149.262 105.891 151.618 105.891Z" fill="#1656A5"/>
<path d="M151.618 106.424C148.502 106.424 146.822 99.7062 146.822 93.3846C146.822 87.063 148.502 80.3475 151.618 80.3475C154.733 80.3475 156.413 87.0653 156.413 93.3846C156.415 99.7062 154.733 106.424 151.618 106.424ZM151.618 81.4054C149.851 81.4054 147.882 86.3243 147.882 93.3846C147.882 100.445 149.851 105.364 151.618 105.364C153.384 105.364 155.353 100.445 155.353 93.3846C155.353 86.3243 153.386 81.4054 151.618 81.4054Z" fill="white"/>
<path d="M162.474 23.1602H114.672V99.0755H166.526C168.074 99.0755 169.327 97.8126 169.327 96.2561V71.9156C169.327 65.1559 168.733 58.4079 167.552 51.7531L162.474 23.1602Z" fill="#1656A5"/>
<path d="M166.524 99.606H114.672C114.378 99.606 114.143 99.3684 114.143 99.0771V23.1618C114.143 22.8682 114.38 22.6328 114.672 22.6328H162.474C162.73 22.6328 162.952 22.8169 162.996 23.0709L168.071 51.6615C169.255 58.3279 169.856 65.1436 169.856 71.9172V96.2577C169.856 98.1031 168.36 99.606 166.524 99.606ZM115.2 98.5458H166.524C167.777 98.5458 168.796 97.5182 168.796 96.2553V71.9149C168.796 65.2041 168.201 58.4514 167.027 51.8432L162.029 23.6907H115.2V98.5458Z" fill="white"/>
<path d="M106.642 57.2104L109.156 57.6438C109.988 57.786 110.746 57.1428 110.746 56.2947V40.5664C110.746 39.4945 109.881 38.623 108.816 38.623H105.321C104.431 38.623 103.711 39.35 103.711 40.2448V53.7106C103.711 55.4395 104.951 56.9168 106.642 57.2104Z" fill="#1656A5"/>
<path d="M109.391 58.1953C109.284 58.1953 109.177 58.186 109.069 58.1674L106.555 57.734C104.603 57.3984 103.184 55.7068 103.184 53.7122V40.2464C103.184 39.0604 104.144 38.0957 105.325 38.0957H108.82C110.176 38.0957 111.278 39.2048 111.278 40.568V56.2963C111.278 56.8602 111.031 57.3891 110.603 57.7526C110.26 58.0392 109.831 58.1953 109.391 58.1953ZM105.325 39.1559C104.728 39.1559 104.244 39.6452 104.244 40.2464V53.7122C104.244 55.1872 105.292 56.4408 106.735 56.6878L109.249 57.1212C109.489 57.1631 109.734 57.0955 109.92 56.9394C110.111 56.7786 110.218 56.5433 110.218 56.2939V40.5656C110.218 39.7874 109.591 39.1536 108.818 39.1536H105.325V39.1559Z" fill="white"/>
<path d="M89.4365 75.2238V0.685547L1.76562 11.2666V75.303L89.4365 75.2238Z" fill="#1656A5"/>
<path d="M155.985 23.013H92.9551L95.7838 9.7336C96.3221 7.21007 98.6848 5.39258 101.43 5.39258H148.932C151.078 5.39258 152.914 6.83491 153.291 8.81551L155.985 23.013Z" fill="#1656A5"/>
<path d="M153.292 8.81747C152.917 6.83686 151.078 5.39453 148.932 5.39453H101.43C100.137 5.39453 98.9326 5.80229 97.9609 6.49201L118.566 23.0149H155.986L153.292 8.81747Z" fill="#1656A5"/>
<path d="M115.147 20.8053C115.03 20.8053 114.914 20.768 114.816 20.6888L100.39 9.12202C100.162 8.93795 100.124 8.60472 100.308 8.37637C100.493 8.14802 100.826 8.11074 101.054 8.29482L115.48 19.8615C115.708 20.0456 115.746 20.3788 115.561 20.6072C115.457 20.7377 115.303 20.8053 115.147 20.8053Z" fill="white"/>
<path d="M155.986 23.5454H92.9566C92.7958 23.5454 92.6443 23.4732 92.5442 23.3497C92.444 23.2262 92.4043 23.0631 92.437 22.907L95.2657 9.62761C95.8436 6.91069 98.3718 4.95573 101.415 4.86719H148.931C151.335 4.86719 153.386 6.48893 153.81 8.72119L156.504 22.9186C156.534 23.0748 156.492 23.2332 156.392 23.3544C156.292 23.4755 156.142 23.5454 155.986 23.5454ZM93.6113 22.4852H155.346L152.771 8.91694C152.442 7.18333 150.827 5.92504 148.933 5.92504H101.429C98.8914 5.99728 96.778 7.60974 96.3026 9.84432L93.6113 22.4852Z" fill="white"/>
<path d="M121.42 37.1641H158.653C160.412 37.1641 161.915 38.4363 162.22 40.1792L165.387 58.3355C165.692 60.0878 164.352 61.6933 162.586 61.6933H120.644C119.073 61.6933 117.799 60.4117 117.799 58.8295V40.8084C117.797 38.7952 119.418 37.1641 121.42 37.1641Z" fill="#1656A5"/>
<path d="M162.584 62.2222H120.642C118.782 62.2222 117.268 60.7006 117.268 58.8296V40.8084C117.268 38.5062 119.129 36.6328 121.42 36.6328H158.653C160.673 36.6328 162.393 38.0845 162.742 40.0861L165.909 58.2424C166.081 59.2373 165.811 60.2486 165.163 61.0199C164.518 61.7842 163.579 62.2222 162.584 62.2222ZM121.42 37.693C119.714 37.693 118.328 39.0911 118.328 40.8084V58.8296C118.328 60.1158 119.365 61.162 120.642 61.162H162.584C163.264 61.162 163.91 60.8614 164.35 60.3371C164.795 59.8059 164.984 59.1092 164.863 58.4241L161.696 40.2678C161.435 38.7742 160.156 37.6907 158.651 37.6907H121.42V37.693Z" fill="white"/>
<path d="M145.978 54.5231C143.801 52.3002 140.833 51.0373 137.731 51.0373H117.76V58.8315C117.76 60.4114 119.07 61.644 120.64 61.644H162.582C164.348 61.644 165.688 60.0642 165.383 58.3119L165.325 58.009H154.222C151.125 58.009 148.154 56.7438 145.978 54.5231Z" fill="#1656A5"/>
<path d="M162.584 62.1749H120.642C118.762 62.1749 117.231 60.6743 117.231 58.8312V51.0369C117.231 50.7433 117.468 50.508 117.76 50.508H137.731C140.944 50.508 144.088 51.8362 146.355 54.1523C148.426 56.2657 151.292 57.4797 154.221 57.4797H165.324C165.578 57.4797 165.797 57.6615 165.846 57.9108L165.905 58.2137C166.077 59.2087 165.809 60.2106 165.168 60.9749C164.528 61.7368 163.586 62.1749 162.584 62.1749ZM118.291 51.5659V58.8312C118.291 60.0894 119.346 61.1147 120.642 61.1147H162.584C163.272 61.1147 163.919 60.8141 164.36 60.2922C164.77 59.8052 164.956 59.1714 164.884 58.5376H154.226C151.013 58.5376 147.869 57.2094 145.602 54.8933C143.533 52.7799 140.665 51.5659 137.736 51.5659H118.291Z" fill="white"/>
<path d="M162.584 62.2222H120.642C118.782 62.2222 117.268 60.7006 117.268 58.8296V40.8084C117.268 38.5062 119.129 36.6328 121.42 36.6328H158.653C160.673 36.6328 162.393 38.0845 162.742 40.0861L165.909 58.2424C166.081 59.2373 165.811 60.2486 165.163 61.0199C164.518 61.7842 163.579 62.2222 162.584 62.2222ZM121.42 37.693C119.714 37.693 118.328 39.0911 118.328 40.8084V58.8296C118.328 60.1158 119.365 61.162 120.642 61.162H162.584C163.264 61.162 163.91 60.8614 164.35 60.3371C164.795 59.8059 164.984 59.1092 164.863 58.4241L161.696 40.2678C161.435 38.7742 160.156 37.6907 158.651 37.6907H121.42V37.693Z" fill="white"/>
<path d="M79.7161 78.9199C79.7137 78.9199 79.7091 78.9199 79.7091 78.9199H74.1587H74.1541C71.8799 78.9199 70.0391 84.3771 70.0391 91.0412C70.0391 97.7054 71.8822 103.167 74.1541 103.167H74.1587H79.7114C79.7114 103.167 79.7161 103.167 79.7184 103.167C81.9926 103.167 83.8334 97.7077 83.8334 91.0436C83.8311 84.3771 81.9879 78.9199 79.7161 78.9199Z" fill="white"/>
<path d="M74.1521 102.969C76.4248 102.969 78.2671 97.5665 78.2671 90.9017C78.2671 84.2369 76.4248 78.834 74.1521 78.834C71.8795 78.834 70.0371 84.2369 70.0371 90.9017C70.0371 97.5665 71.8795 102.969 74.1521 102.969Z" fill="#1656A5"/>
<path d="M74.1521 103.498C71.1346 103.498 69.5059 97.0086 69.5059 90.9013C69.5059 84.7941 71.1346 78.3047 74.1521 78.3047C77.1696 78.3047 78.7984 84.7941 78.7984 90.9013C78.7984 97.0086 77.1696 103.498 74.1521 103.498ZM74.1521 79.3649C72.4558 79.3649 70.5661 84.102 70.5661 90.9013C70.5661 97.7006 72.4558 102.438 74.1521 102.438C75.8485 102.438 77.7382 97.7006 77.7382 90.9013C77.7382 84.102 75.8485 79.3649 74.1521 79.3649Z" fill="white"/>
<path d="M18.9421 77.4023C18.9398 77.4023 18.9351 77.4023 18.9351 77.4023H14.177C14.177 77.4023 14.1747 77.4023 14.1723 77.4023C12.2244 77.4023 10.6445 81.9158 10.6445 87.5547C10.6445 93.1936 12.2244 97.7094 14.1723 97.7094C14.1747 97.7094 14.177 97.7094 14.177 97.7094H18.9351C18.9351 97.7094 18.9398 97.7094 18.9421 97.7094C20.8901 97.7094 22.4699 93.1936 22.4699 87.557C22.4699 81.9181 20.8901 77.4023 18.9421 77.4023Z" fill="white"/>
<path d="M14.1723 97.5943C16.1207 97.5943 17.7001 93.0239 17.7001 87.386C17.7001 81.7481 16.1207 77.1777 14.1723 77.1777C12.224 77.1777 10.6445 81.7481 10.6445 87.386C10.6445 93.0239 12.224 97.5943 14.1723 97.5943Z" fill="#1656A5"/>
<path d="M14.1724 98.1236C11.537 98.1236 10.1133 92.5896 10.1133 87.3841C10.1133 82.1786 11.5347 76.6445 14.1724 76.6445C16.8077 76.6445 18.2314 82.1786 18.2314 87.3841C18.2314 92.5919 16.8101 98.1236 14.1724 98.1236ZM14.1724 77.7071C12.758 77.7071 11.1735 81.8454 11.1735 87.3864C11.1735 92.9251 12.7556 97.0657 14.1724 97.0657C15.5867 97.0657 17.1712 92.9274 17.1712 87.3864C17.1712 81.8454 15.5891 77.7071 14.1724 77.7071Z" fill="white"/>
<path d="M27.9772 78.0098C27.9749 78.0098 27.9703 78.0098 27.9703 78.0098H23.2122H23.2075C21.2595 78.0098 19.6797 82.5232 19.6797 88.1621C19.6797 93.801 21.2595 98.3168 23.2075 98.3168H23.2122H27.9703C27.9703 98.3168 27.9749 98.3168 27.9772 98.3168C29.9252 98.3168 31.5051 93.801 31.5051 88.1644C31.5051 82.5255 29.9252 78.0098 27.9772 78.0098Z" fill="white"/>
<path d="M23.2075 98.1997C25.1558 98.1997 26.7353 93.6293 26.7353 87.9915C26.7353 82.3536 25.1558 77.7832 23.2075 77.7832C21.2591 77.7832 19.6797 82.3536 19.6797 87.9915C19.6797 93.6293 21.2591 98.1997 23.2075 98.1997Z" fill="#1656A5"/>
<path d="M23.2075 98.731C20.5721 98.731 19.1484 93.197 19.1484 87.9915C19.1484 82.786 20.5698 77.252 23.2075 77.252C25.8429 77.252 27.2666 82.786 27.2666 87.9915C27.2666 93.197 25.8429 98.731 23.2075 98.731ZM23.2075 78.3121C21.7931 78.3121 20.2086 82.4504 20.2086 87.9915C20.2086 93.5325 21.7908 97.6708 23.2075 97.6708C24.6219 97.6708 26.2064 93.5325 26.2064 87.9915C26.2064 82.4504 24.6219 78.3121 23.2075 78.3121Z" fill="white"/>
<path d="M37.4015 78.0099C37.3992 78.0099 37.3945 78.0099 37.3945 78.0099H32.4547C32.4547 78.0099 32.4523 78.0099 32.45 78.0099C30.4275 78.0099 28.787 82.8356 28.787 88.768C28.787 94.7005 30.4275 99.5286 32.45 99.5286C32.4523 99.5286 32.4547 99.5286 32.4547 99.5286H37.3968C37.3968 99.5286 37.4015 99.5286 37.4038 99.5286C39.4264 99.5286 41.0668 94.7005 41.0668 88.768C41.0645 82.8379 39.424 78.0099 37.4015 78.0099Z" fill="white"/>
<path d="M32.4501 99.3372C34.473 99.3372 36.113 94.5279 36.113 88.5954C36.113 82.6628 34.473 77.8535 32.4501 77.8535C30.4271 77.8535 28.7871 82.6628 28.7871 88.5954C28.7871 94.5279 30.4271 99.3372 32.4501 99.3372Z" fill="#1656A5"/>
<path d="M32.4501 99.8678C29.7262 99.8678 28.2559 94.0611 28.2559 88.597C28.2559 83.1328 29.7262 77.3262 32.4501 77.3262C35.174 77.3262 36.6443 83.1328 36.6443 88.597C36.642 94.0588 35.174 99.8678 32.4501 99.8678ZM32.4501 78.3841C30.9705 78.3841 29.3161 82.7507 29.3161 88.5946C29.3161 94.4386 30.9705 98.8052 32.4501 98.8052C33.9297 98.8052 35.5841 94.4386 35.5841 88.5946C35.5841 82.7507 33.9274 78.3841 32.4501 78.3841Z" fill="white"/>
<path d="M128.48 90.7755H121.753C120.595 90.7755 119.658 89.8318 119.658 88.6667V84.8826H124.976C126.779 84.8826 128.387 86.029 128.986 87.7416L129.526 89.2888C129.78 90.0158 129.244 90.7755 128.48 90.7755Z" fill="#1656A5"/>
<path d="M128.478 91.306H121.751C120.304 91.306 119.125 90.1223 119.125 88.6683V84.8842C119.125 84.5906 119.363 84.3553 119.654 84.3553H124.971C126.996 84.3553 128.809 85.6461 129.48 87.5685L130.021 89.1157C130.198 89.6213 130.119 90.1829 129.809 90.6163C129.508 91.0474 129.007 91.306 128.478 91.306ZM120.188 85.4108V88.666C120.188 89.5374 120.889 90.2458 121.753 90.2458H128.48C128.669 90.2458 128.842 90.1573 128.951 90.0011C129.063 89.8427 129.091 89.6469 129.028 89.4629L128.487 87.9157C127.963 86.4174 126.553 85.4131 124.978 85.4131H120.188V85.4108Z" fill="white"/>
<path d="M156.47 90.3675H163.197C164.355 90.3675 165.291 89.4238 165.291 88.2587V84.4746H159.974C158.171 84.4746 156.563 85.621 155.964 87.3336L155.423 88.8808C155.169 89.6078 155.703 90.3675 156.47 90.3675Z" fill="#1656A5"/>
<path d="M163.193 90.898H156.466C155.937 90.898 155.439 90.6394 155.131 90.2083C154.821 89.7726 154.742 89.211 154.919 88.7077L155.46 87.1605C156.131 85.2381 157.944 83.9473 159.968 83.9473H165.286C165.579 83.9473 165.815 84.1849 165.815 84.4762V88.2603C165.819 89.7143 164.643 90.898 163.193 90.898ZM159.971 85.0051C158.396 85.0051 156.986 86.0117 156.462 87.5077L155.921 89.0549C155.856 89.239 155.884 89.4347 155.998 89.5931C156.107 89.7493 156.28 89.8378 156.469 89.8378H163.196C164.058 89.8378 164.761 89.1295 164.761 88.258V85.0028H159.971V85.0051Z" fill="white"/>
<path d="M151.673 94.7599H133.976C133.067 94.7599 132.226 94.2706 131.776 93.4761L130.995 92.1013C130.73 91.6353 131.065 91.0527 131.599 91.0527H154.054C154.588 91.0527 154.923 91.6329 154.658 92.1013L153.877 93.4761C153.42 94.2683 152.582 94.7599 151.673 94.7599Z" fill="#1656A5"/>
<path d="M151.673 95.2889H133.975C132.878 95.2889 131.859 94.6947 131.314 93.7371L130.534 92.3623C130.315 91.9755 130.317 91.5164 130.541 91.132C130.762 90.7498 131.158 90.5215 131.599 90.5215H154.054C154.494 90.5215 154.89 90.7498 155.112 91.132C155.335 91.5164 155.338 91.9755 155.119 92.3623L154.336 93.7371C153.788 94.6947 152.768 95.2889 151.673 95.2889ZM131.594 91.5817C131.512 91.5817 131.47 91.633 131.452 91.6632C131.433 91.6959 131.407 91.7611 131.452 91.8357L132.232 93.2105C132.589 93.8373 133.255 94.2264 133.973 94.2264H151.67C152.388 94.2264 153.054 93.8373 153.411 93.2105L154.194 91.8357C154.236 91.7611 154.212 91.6959 154.194 91.6632C154.175 91.633 154.133 91.5817 154.052 91.5817H131.594Z" fill="white"/>
<path d="M105.114 55.4237H103.166C101.565 55.4237 100.27 54.1258 100.27 52.5274V43.5401C100.27 42.3098 101.267 41.3125 102.497 41.3125H105.1C105.664 41.3125 106.12 41.7692 106.12 42.3331V54.4194C106.118 54.974 105.668 55.4237 105.114 55.4237Z" fill="#1656A5"/>
<path d="M105.114 55.9527H103.166C101.276 55.9527 99.7383 54.4148 99.7383 52.5251V43.5378C99.7383 42.0185 100.976 40.7812 102.495 40.7812H105.095C105.95 40.7812 106.645 41.4756 106.645 42.3308V54.4171C106.647 55.2653 105.96 55.9527 105.114 55.9527ZM102.495 41.8438C101.558 41.8438 100.798 42.6057 100.798 43.5401V52.5274C100.798 53.8322 101.861 54.8948 103.166 54.8948H105.114C105.375 54.8948 105.587 54.6827 105.587 54.4218V42.3354C105.587 42.0651 105.368 41.8461 105.098 41.8461H102.495V41.8438Z" fill="white"/>
<path d="M172.753 56.0177H171.225C170.871 56.0177 170.584 55.7311 170.584 55.3769V41.2983C170.584 41.028 170.803 40.8066 171.076 40.8066H173.585C174.461 40.8066 175.172 41.5173 175.172 42.3934V53.5943C175.172 54.9342 174.088 56.0177 172.753 56.0177Z" fill="#1656A5"/>
<path d="M172.753 56.5482H171.224C170.579 56.5482 170.055 56.0239 170.055 55.3785V41.2999C170.055 40.736 170.514 40.2793 171.075 40.2793H173.585C174.752 40.2793 175.703 41.23 175.703 42.3974V53.5983C175.703 55.2247 174.379 56.5482 172.753 56.5482ZM171.115 41.3395V55.3785C171.115 55.4391 171.164 55.488 171.224 55.488H172.753C173.795 55.488 174.643 54.6398 174.643 53.5983V42.3974C174.643 41.8148 174.167 41.3395 173.585 41.3395H171.115Z" fill="white"/>
<path d="M165.596 68.9002H118.703C118.432 68.9002 118.211 69.1216 118.211 69.3942V72.47C118.211 73.5115 119.05 74.3574 120.084 74.3574H121.499C122.228 74.3574 122.89 74.7814 123.197 75.4478L124.663 78.6168C125.942 81.3804 128.694 83.1466 131.723 83.1466H153.988C157.017 83.1466 159.769 81.3804 161.048 78.6168L162.514 75.4478C162.821 74.7838 163.483 74.3574 164.212 74.3574C165.247 74.3574 166.086 73.5139 166.086 72.47V69.3942C166.088 69.1216 165.867 68.9002 165.596 68.9002Z" fill="#1656A5"/>
<path d="M153.988 83.6755H131.723C128.503 83.6755 125.542 81.7765 124.183 78.8382L122.717 75.6692C122.498 75.1939 122.018 74.8863 121.499 74.8863H120.084C118.759 74.8863 117.68 73.8028 117.68 72.47V69.3942C117.68 68.8303 118.139 68.369 118.7 68.369H165.594C166.158 68.369 166.615 68.828 166.615 69.3942V72.47C166.615 73.8028 165.536 74.8863 164.21 74.8863C163.69 74.8863 163.213 75.1939 162.991 75.6692L161.526 78.8382C160.17 81.7765 157.21 83.6755 153.988 83.6755ZM118.703 69.4315L118.742 72.47C118.742 73.2179 119.346 73.8261 120.087 73.8261H121.501C122.433 73.8261 123.288 74.3737 123.682 75.2242L125.148 78.3931C126.334 80.9586 128.916 82.6153 131.726 82.6153H153.99C156.8 82.6153 159.382 80.9586 160.568 78.3931L162.034 75.2242C162.427 74.376 163.283 73.8261 164.215 73.8261C164.956 73.8261 165.559 73.2179 165.559 72.47V69.4315H118.703Z" fill="white"/>
<path d="M1.76564 75.8351C1.62584 75.8351 1.49069 75.7792 1.39049 75.6813C1.2903 75.5811 1.23438 75.446 1.23438 75.3062V11.2675C1.23438 10.9995 1.43477 10.7735 1.7004 10.7409L89.3736 0.162103C89.525 0.143462 89.6741 0.192408 89.7883 0.292604C89.9025 0.392799 89.9677 0.537255 89.9677 0.688713V75.0732C89.9677 75.3644 89.7301 75.6021 89.4388 75.6021L1.76564 75.8351ZM2.29458 11.7358V74.7726L88.9075 74.5419V1.28524L2.29458 11.7358Z" fill="white"/>
<path d="M8.67933 70.2018C8.38573 70.2018 8.15039 69.9641 8.15039 69.6729V16.8746C8.15039 16.581 8.38806 16.3457 8.67933 16.3457C8.97292 16.3457 9.20827 16.5834 9.20827 16.8746V69.6729C9.20827 69.9641 8.97059 70.2018 8.67933 70.2018Z" fill="white"/>
<path d="M17.7047 70.2018C17.4111 70.2018 17.1758 69.9641 17.1758 69.6729V15.8727C17.1758 15.5791 17.4135 15.3438 17.7047 15.3438C17.9983 15.3438 18.2337 15.5814 18.2337 15.8727V69.6729C18.2337 69.9641 17.996 70.2018 17.7047 70.2018Z" fill="white"/>
<path d="M26.7261 70.2022C26.4325 70.2022 26.1972 69.9645 26.1972 69.6732V14.8944C26.1972 14.6008 26.4349 14.3655 26.7261 14.3655C27.0197 14.3655 27.2551 14.6032 27.2551 14.8944V69.6732C27.2574 69.9645 27.0197 70.2022 26.7261 70.2022Z" fill="white"/>
<path d="M35.7516 70.2008C35.458 70.2008 35.2227 69.9631 35.2227 69.6718V13.693C35.2227 13.3994 35.4603 13.1641 35.7516 13.1641C36.0452 13.1641 36.2805 13.4017 36.2805 13.693V69.6718C36.2829 69.9631 36.0452 70.2008 35.7516 70.2008Z" fill="white"/>
<path d="M44.775 70.1998C44.4814 70.1998 44.2461 69.9621 44.2461 69.6709V12.7926C44.2461 12.499 44.4838 12.2637 44.775 12.2637C45.0686 12.2637 45.304 12.5013 45.304 12.7926V69.6709C45.3063 69.9621 45.0686 70.1998 44.775 70.1998Z" fill="white"/>
<path d="M53.7985 70.2013C53.5049 70.2013 53.2695 69.9636 53.2695 69.6723V11.3727C53.2695 11.0791 53.5072 10.8438 53.7985 10.8438C54.0921 10.8438 54.3274 11.0814 54.3274 11.3727V69.6723C54.3274 69.9636 54.0921 70.2013 53.7985 70.2013Z" fill="white"/>
<path d="M62.8239 70.2014C62.5303 70.2014 62.2949 69.9637 62.2949 69.6725V10.527C62.2949 10.2334 62.5326 9.99805 62.8239 9.99805C63.1175 9.99805 63.3528 10.2357 63.3528 10.527V69.6725C63.3528 69.9637 63.1151 70.2014 62.8239 70.2014Z" fill="white"/>
<path d="M71.8492 70.2023C71.5557 70.2023 71.3203 69.9646 71.3203 69.6733V9.33949C71.3203 9.04589 71.558 8.81055 71.8492 8.81055C72.1428 8.81055 72.3782 9.04822 72.3782 9.33949V69.6733C72.3782 69.9646 72.1405 70.2023 71.8492 70.2023Z" fill="white"/>
<path d="M80.8727 70.2013C80.5791 70.2013 80.3438 69.9636 80.3438 69.6723V8.36683C80.3438 8.07324 80.5814 7.83789 80.8727 7.83789C81.164 7.83789 81.4016 8.07557 81.4016 8.36683V69.6723C81.404 69.9636 81.1663 70.2013 80.8727 70.2013Z" fill="white"/>
</g>
</g>
<defs>
<clipPath id="clip0_3106_31975">
<rect width="175" height="101" fill="white" transform="translate(0.203125 0.361328)"/>
</clipPath>
</defs>
</svg>
