<?xml version="1.0" encoding="UTF-8"?>
<!DOCTYPE svg PUBLIC "-//W3C//DTD SVG 1.1//EN" "http://www.w3.org/Graphics/SVG/1.1/DTD/svg11.dtd">
<!-- Creator: CorelDRAW -->
<svg xmlns="http://www.w3.org/2000/svg" xml:space="preserve" width="55.3902mm" height="78.8564mm" version="1.1" style="shape-rendering:geometricPrecision; text-rendering:geometricPrecision; image-rendering:optimizeQuality; fill-rule:evenodd; clip-rule:evenodd"
viewBox="0 0 973.41 1385.8"
 xmlns:xlink="http://www.w3.org/1999/xlink"
 xmlns:xodm="http://www.corel.com/coreldraw/odm/2003">
 <defs>
  <style type="text/css">
   <![CDATA[
    .fil0 {fill:#1F3E79}
    .fil1 {fill:#F4821F}
   ]]>
  </style>
 </defs>
 <g id="Слой_x0020_1">
  <metadata id="CorelCorpID_0Corel-Layer"/>
  <g id="_2672338962656">
   <g>
    <path class="fil0" d="M917.4 434.77l-298.32 0 0 -409.83c0,-13.69 11.25,-24.94 24.94,-24.94l44.67 0c0.1,67.15 26.79,131.56 74.32,179.11 47.66,47.52 112.06,74.22 179.32,74.22l0 181.44 -24.94 0zm24.94 144.67c0,170.92 -39.04,298.29 -117.17,381.31 -78.09,83.01 -198.71,124.41 -361.36,124.41 -152.03,0 -267.33,-41.4 -345.95,-124.41 -78.61,-83.01 -117.87,-208.14 -117.87,-375.5l0 -561.43c0,-13.09 10.62,-23.81 23.81,-23.81l275.6 0c13.09,0.1 23.84,10.73 23.84,23.81l0 573.71c0,68.28 12.67,120.93 38.32,157.94 39.78,52.66 110.93,70.25 170.53,42.21 19.21,-9.08 36.09,-22.37 49.38,-38.83 25.15,-34.86 37.6,-86.08 37.6,-153.96l0 -107.32 323.26 0 0 81.88z"/>
    <path class="fil1" d="M752.3 0l165.1 0c13.79,0 24.94,11.25 24.94,24.94l0 165.32c-104.89,0 -190.04,-85.06 -190.04,-190.05l0 -0.21zm0 0z"/>
   </g>
   <path class="fil0" d="M54.07 1357.9c36.51,0 54.09,-20.36 54.09,-50.19l0 -71.86 -26.06 0 0 71.13c0,37.53 -56.25,37.53 -56.25,0l0 -71.13 -25.85 0 0 72.07c0,29.44 17.59,49.98 54.07,49.98zm211.72 -2.25l0 -22.4 -57.86 0 56.63 -76.97 0 -20.44 -90.05 0 0 22.48 56.63 0 -56.63 76.68 0 20.65 91.28 0zm121.96 2.25c20.96,0.39 40.38,-10.93 50.19,-29.54l-22.06 -10.55c-5.42,10.55 -16.25,17.3 -28.24,17.4 -33.63,-1.65 -49.77,-42.03 -26.56,-66.48 6.94,-7.35 16.56,-11.75 26.56,-12.25 11.99,0.21 22.82,6.94 28.24,17.48l22.06 -10.84c-9.81,-18.5 -29.24,-29.86 -50.19,-29.26 -45.07,-1.31 -76.45,44.49 -58.99,86.11 10.02,23.61 33.44,38.63 58.99,37.92zm222.97 -2.25l-46.22 -119.81 -31.88 0 -46.42 119.81 29.12 0 7.48 -20.25 51.51 0 7.38 20.25 29.02 0zm-43.44 -42.74l-37.43 0 18.72 -51.53 18.71 51.53zm215.8 72.89l-43.96 -75.73c16.14,-3.9 27.19,-18.93 26.16,-35.49 0.82,-22.37 -17.97,-40.48 -40.27,-38.63l-56.11 0 0 119.81 25.55 0 0 -42.63 18.71 0 40.59 72.57 29.23 0.1 0.1 0zm-61.84 -95.07l-26.69 0 0 -32.3 26.69 0c9.61,-1.12 18.09,6.34 18.09,16.15 0,9.71 -8.48,17.27 -18.09,16.15zm157.63 65.03c37.53,0 63.59,-23.73 63.59,-59.8 0,-36.19 -26.06,-60.01 -63.59,-60.01l-47.34 0 0 119.81 47.34 0zm0 -22.51l-21.77 0 0 -74.82 21.77 0c21.28,-1.65 39.04,16.15 37.53,37.53 0.91,21.05 -16.56,38.42 -37.63,37.29l0.1 0zm94.56 -99.65l0 0.28c0,19.94 -24.03,29.87 -38.03,15.86 -14.01,-14.1 -4.08,-38.13 15.76,-38.13l22.27 0 0 21.99zm0 0z"/>
  </g>
 </g>
</svg>
