<svg width="44" height="52" viewBox="0 0 44 52" fill="none" xmlns="http://www.w3.org/2000/svg">
<rect width="44" height="52" rx="3" fill="white"/>
<g clip-path="url(#clip0_3564_45353)">
<path fill-rule="evenodd" clip-rule="evenodd" d="M34.8043 18.1767H25.763V5.75587C25.763 5.34096 26.104 5 26.5189 5H27.8727C27.8757 7.03514 28.6846 8.98724 30.1252 10.4284C31.5696 11.8686 33.5214 12.6778 35.5599 12.6778V18.1767H34.804H34.8043ZM35.5602 22.5613C35.5602 27.7415 34.377 31.6017 32.0091 34.1178C29.6424 36.6337 25.9867 37.8884 21.0572 37.8884C16.4495 37.8884 12.9551 36.6337 10.5723 34.1178C8.18987 31.602 7 27.8097 7 22.7374V5.72192C7 5.3252 7.32186 5.0003 7.72162 5.0003H16.0743C16.4711 5.00333 16.7969 5.3255 16.7969 5.72192V23.1096C16.7969 25.179 17.1809 26.7747 17.9582 27.8963C19.1639 29.4923 21.3202 30.0254 23.1266 29.1756C23.7088 28.9004 24.2204 28.4976 24.6231 27.9988C25.3854 26.9423 25.7627 25.3899 25.7627 23.3326V20.0801H35.5599V22.5616L35.5602 22.5613Z" fill="#1F3E79"/>
<path fill-rule="evenodd" clip-rule="evenodd" d="M29.8008 5H34.8045C35.2225 5 35.5604 5.34096 35.5604 5.75587V10.7663C32.3815 10.7663 29.8008 8.18834 29.8008 5.00636V5Z" fill="#F4821F"/>
<path fill-rule="evenodd" clip-rule="evenodd" d="M8.63872 46.1541C9.74524 46.1541 10.278 45.5371 10.278 44.633V42.4551H9.48824V44.6109C9.48824 45.7483 7.78345 45.7483 7.78345 44.6109V42.4551H7V44.6394C7 45.5316 7.53311 46.1541 8.63872 46.1541ZM15.0554 46.0859V45.4071H13.3018L15.0181 43.0743V42.4548H12.2889V43.1361H14.0053L12.2889 45.4601V46.0859H15.0554ZM18.7517 46.1541C19.3869 46.1659 19.9755 45.8229 20.2728 45.2588L19.6042 44.9391C19.44 45.2589 19.1117 45.4634 18.7484 45.4665C17.7291 45.4164 17.24 44.1926 17.9434 43.4516C18.1537 43.2289 18.4453 43.0955 18.7484 43.0804C19.1117 43.0867 19.44 43.2907 19.6042 43.6101L20.2728 43.2816C19.9755 42.7209 19.3866 42.3766 18.7517 42.3948C17.3857 42.3551 16.4347 43.7432 16.9639 45.0046C17.2675 45.7201 17.9773 46.1753 18.7517 46.1538V46.1541ZM25.5093 46.0859L24.1085 42.4548H23.1423L21.7355 46.0859H22.618L22.8447 45.4722H24.4058L24.6295 46.0859H25.509H25.5093ZM24.1928 44.7906H23.0584L23.6257 43.2289L24.1928 44.7906ZM30.7331 46.9997L29.4008 44.7045C29.89 44.5863 30.2249 44.1308 30.1937 43.6289C30.2185 42.9509 29.649 42.4021 28.9732 42.4581H27.2726V46.0893H28.047V44.7973H28.614L29.8442 46.9967L30.7301 46.9997H30.7331ZM28.8589 44.1184H28.05V43.1395H28.8589C29.1502 43.1055 29.4072 43.3316 29.4072 43.6289C29.4072 43.9232 29.1502 44.1523 28.8589 44.1184ZM33.6363 46.0893C34.7737 46.0893 35.5635 45.3701 35.5635 44.2769C35.5635 43.1801 34.7737 42.4581 33.6363 42.4581H32.2015V46.0893H33.6363ZM33.6363 45.4071H32.9765V43.1395H33.6363C34.2812 43.0894 34.8195 43.6289 34.7737 44.2769C34.8013 44.9149 34.2718 45.4413 33.6332 45.4071H33.6363ZM36.5021 42.3869V42.3954C36.5021 42.9997 35.7739 43.3007 35.3495 42.8761C34.9249 42.4487 35.2259 41.7205 35.8272 41.7205H36.5021V42.3869Z" fill="#1F3E79"/>
</g>
<defs>
<clipPath id="clip0_3564_45353">
<rect width="29.5016" height="42" fill="white" transform="translate(7 5)"/>
</clipPath>
</defs>
</svg>
