<svg width="30" height="30" viewBox="0 0 30 30" fill="none" xmlns="http://www.w3.org/2000/svg">
<path d="M14.9999 9.66668C12.0533 9.66668 9.66659 12.0533 9.66659 15C9.66659 17.9467 12.0533 20.3333 14.9999 20.3333C17.9466 20.3333 20.3333 17.9467 20.3333 15C20.3333 12.0533 17.9466 9.66668 14.9999 9.66668ZM26.9199 13.6667C26.6179 10.9628 25.4055 8.44206 23.4817 6.51827C21.5579 4.59448 19.0371 3.38203 16.3333 3.08001V0.333344H13.6666V3.08001C10.9627 3.38203 8.44197 4.59448 6.51818 6.51827C4.59439 8.44206 3.38193 10.9628 3.07992 13.6667H0.333252V16.3333H3.07992C3.38193 19.0372 4.59439 21.558 6.51818 23.4818C8.44197 25.4055 10.9627 26.618 13.6666 26.92V29.6667H16.3333V26.92C19.0371 26.618 21.5579 25.4055 23.4817 23.4818C25.4055 21.558 26.6179 19.0372 26.9199 16.3333H29.6666V13.6667H26.9199ZM14.9999 24.3333C9.83992 24.3333 5.66659 20.16 5.66659 15C5.66659 9.84001 9.83992 5.66668 14.9999 5.66668C20.1599 5.66668 24.3333 9.84001 24.3333 15C24.3333 20.16 20.1599 24.3333 14.9999 24.3333Z" fill="#323232"/>
</svg>
