<svg width="21" height="30" viewBox="0 0 21 30" fill="none" xmlns="http://www.w3.org/2000/svg">
<path d="M10.5 0C4.70334 0 0 4.23347 0 9.45C0 17.85 10.5 29.4 10.5 29.4C10.5 29.4 21 17.85 21 9.45C21 4.23347 16.2967 0 10.5 0ZM10.5 14.7C9.66932 14.7 8.85729 14.4537 8.1666 13.9922C7.47592 13.5307 6.93759 12.8747 6.61971 12.1073C6.30182 11.3398 6.21864 10.4953 6.3807 9.68062C6.54276 8.8659 6.94277 8.11753 7.53015 7.53015C8.11753 6.94277 8.8659 6.54276 9.68062 6.3807C10.4953 6.21864 11.3398 6.30182 12.1073 6.61971C12.8747 6.93759 13.5307 7.47592 13.9922 8.1666C14.4537 8.85729 14.7 9.66932 14.7 10.5C14.6988 11.6135 14.2559 12.6811 13.4685 13.4685C12.6811 14.2559 11.6135 14.6988 10.5 14.7Z" fill="#DE1212"/>
</svg>
